<svg version="1.1" id="Layer_1" xmlns="http://www.w3.org/2000/svg" xmlns:xlink="http://www.w3.org/1999/xlink" x="0px" y="0px"
	 width="100%" viewBox="0 0 189 266" enable-background="new 0 0 189 266" xml:space="preserve">
<path fill="#010101" opacity="1.000000" stroke="none" 
	d="
M190.000000,105.000000 
	C190.000000,159.333328 190.000000,213.166672 190.000000,267.000000 
	C127.000000,267.000000 64.000000,267.000000 1.000000,267.000000 
	C1.000000,178.333328 1.000000,89.666664 1.000000,1.000000 
	C64.000000,1.000000 127.000000,1.000000 190.000000,1.000000 
	C190.000000,35.500000 190.000000,70.000000 190.000000,105.000000 
M154.146408,176.649597 
	C154.539749,176.667755 154.933105,176.685913 155.326447,176.704071 
	C155.024155,176.309921 154.721878,175.915771 154.187698,174.894241 
	C151.487671,172.894409 148.787643,170.894562 145.811707,168.422562 
	C145.491257,168.271774 145.170822,168.121002 145.002975,167.378677 
	C145.584244,166.819000 146.165512,166.259323 147.418060,165.546249 
	C151.454132,158.799225 156.736984,153.504730 164.144653,150.401443 
	C166.877228,149.256699 169.375397,147.479385 171.843658,145.790619 
	C178.955963,140.924438 183.929077,134.428925 186.331604,126.085762 
	C187.888519,120.679161 187.079575,115.966278 182.552429,112.094322 
	C176.503769,106.921028 170.062134,102.678284 161.876587,101.912323 
	C158.397919,101.586807 156.490875,100.268105 154.705124,96.603218 
	C147.683914,82.193626 138.166473,69.716347 123.148705,62.577431 
	C118.540909,60.387047 115.237267,57.843239 114.662346,51.927704 
	C114.197777,47.147625 111.873154,42.456741 109.850624,37.961620 
	C108.955238,35.971611 106.768044,34.562840 105.111961,32.904484 
	C105.111961,32.904484 105.135025,32.853382 105.409302,32.141949 
	C104.237633,29.641434 103.332481,26.806408 99.437805,27.374855 
	C99.437805,27.374855 99.220490,26.999449 98.857475,26.054840 
	C98.593674,25.844618 98.329872,25.634398 97.571938,25.038227 
	C94.684441,25.393858 91.563576,25.164324 88.949959,26.206678 
	C77.787155,30.658588 70.242615,38.925541 64.869484,49.558323 
	C63.673512,51.925011 61.128094,54.085236 58.684528,55.260147 
	C50.089638,59.392708 41.605862,63.452393 36.508785,72.180725 
	C35.937046,73.159775 34.167339,73.439255 33.072952,73.330704 
	C30.702856,70.896828 28.332762,68.462952 25.687515,65.418098 
	C19.798317,59.830849 12.436405,57.185650 4.700360,55.268421 
	C11.816342,58.829430 18.932325,62.390442 25.989939,66.653259 
	C28.334244,69.097031 30.678547,71.540794 33.153912,74.682419 
	C32.892975,76.516449 32.838406,78.409546 32.333462,80.173737 
	C30.631422,86.120377 28.769302,92.021187 26.237381,97.774994 
	C18.816519,94.426163 11.073311,94.534554 3.236784,95.614563 
	C7.462185,96.289558 11.802803,96.244354 15.954024,97.108742 
	C19.526064,97.852524 22.882046,99.633919 26.242756,101.864784 
	C26.687178,121.997169 30.845936,140.928238 44.382202,156.695374 
	C46.341038,158.977036 46.097954,160.380417 44.730999,163.021957 
	C40.508236,171.182220 36.930145,179.676056 32.794243,188.697342 
	C31.577982,192.078674 30.361723,195.460022 29.026400,199.172379 
	C27.414164,198.033798 26.279430,197.085938 25.015566,196.364197 
	C18.012621,192.364960 8.895938,195.996704 8.282147,203.561188 
	C7.097869,218.156433 12.790570,230.098587 24.347792,239.961487 
	C25.519817,240.438690 26.691843,240.915894 28.610020,241.769684 
	C31.384607,241.838272 34.173416,242.104172 36.928753,241.905624 
	C38.745979,241.774673 40.515053,240.975525 43.113983,240.417145 
	C44.732510,240.471710 46.351040,240.526260 47.869713,241.153915 
	C48.590969,241.398758 49.312225,241.643585 50.316448,242.537628 
	C55.795616,247.257568 61.435955,246.501816 67.494774,243.541245 
	C69.280113,242.668884 71.871910,243.208282 74.056480,243.446213 
	C77.535240,243.825134 81.004837,245.052094 84.437920,244.914322 
	C90.151665,244.684998 95.831001,243.638077 101.529533,242.975967 
	C105.485710,242.516281 109.447754,242.103958 113.411507,241.714462 
	C114.689400,241.588882 115.988144,241.491867 117.265205,241.572968 
	C123.054298,241.940628 128.930695,243.214966 134.604233,242.594727 
	C143.473160,241.625198 152.639771,240.542221 160.890656,237.420380 
	C173.255478,232.741989 182.102600,210.274628 177.710602,197.547882 
	C177.046478,195.623520 175.612335,193.684204 174.009460,192.414444 
	C167.972504,187.632095 161.312775,190.212265 157.144455,198.138992 
	C154.070908,203.983810 150.603989,209.681396 146.738098,215.029480 
	C144.059357,218.735260 139.846512,219.672638 135.030563,218.517441 
	C135.619537,216.116440 136.120758,214.073166 136.800751,211.258423 
	C135.576080,208.310501 135.149185,203.960312 132.956955,202.713104 
	C128.688568,200.284729 123.430878,199.595215 117.746155,197.942169 
	C116.641159,194.063400 115.132729,188.768509 113.780991,184.023605 
	C118.517799,182.653671 123.233566,181.289841 128.532822,180.286743 
	C132.079239,185.335938 135.625656,190.385147 139.172073,195.434341 
	C139.539856,195.218918 139.907623,195.003494 140.275406,194.788055 
	C137.830154,190.433289 135.275085,186.134659 133.003220,181.691223 
	C132.273941,180.264908 132.292465,178.456223 132.764313,176.977509 
	C140.710098,176.499008 141.783279,184.352524 145.985855,188.412109 
	C146.389557,188.095413 146.793274,187.778702 147.196976,187.462006 
	C144.380829,183.398605 141.564682,179.335190 138.467972,174.866974 
	C140.393875,173.435776 142.628891,171.774872 145.324982,170.601105 
	C148.136734,172.494827 150.948502,174.388535 154.146408,176.649597 
M5.872933,76.014633 
	C4.906736,76.180641 3.940539,76.346642 2.974342,76.512642 
	C3.005540,76.743629 3.036738,76.974617 3.067936,77.205612 
	C9.514610,78.729919 15.961286,80.254227 22.407961,81.778534 
	C22.571854,81.191185 22.735748,80.603836 22.899643,80.016487 
	C17.488558,78.699432 12.077474,77.382385 5.872933,76.014633 
z"/>
<path fill="#656466" opacity="1.000000" stroke="none" 
	d="
M136.621979,212.029907 
	C136.120758,214.073166 135.619537,216.116440 135.030563,218.517441 
	C139.846512,219.672638 144.059357,218.735260 146.738098,215.029480 
	C150.603989,209.681396 154.070908,203.983810 157.144455,198.138992 
	C161.312775,190.212265 167.972504,187.632095 174.009460,192.414444 
	C175.612335,193.684204 177.046478,195.623520 177.710602,197.547882 
	C182.102600,210.274628 173.255478,232.741989 160.890656,237.420380 
	C152.639771,240.542221 143.473160,241.625198 134.604233,242.594727 
	C128.930695,243.214966 123.054298,241.940628 117.265205,241.572968 
	C115.988144,241.491867 114.689400,241.588882 113.411507,241.714462 
	C109.447754,242.103958 105.485710,242.516281 101.529533,242.975967 
	C95.831001,243.638077 90.151665,244.684998 84.437920,244.914322 
	C81.004837,245.052094 77.535240,243.825134 74.056480,243.446213 
	C71.871910,243.208282 69.280113,242.668884 67.494774,243.541245 
	C61.435955,246.501816 55.795616,247.257568 50.160809,241.919098 
	C49.989273,240.203857 49.973377,239.107162 50.206062,238.154892 
	C50.927639,238.601044 51.400642,238.902771 51.926155,239.482941 
	C52.298492,240.186417 52.618320,240.611450 53.075718,241.371338 
	C60.327530,245.473740 69.306938,242.349777 69.828003,235.639603 
	C70.465126,227.434631 70.518890,219.184341 70.908600,210.635590 
	C71.002205,209.880142 71.012115,209.442749 71.276733,208.695312 
	C71.622444,205.573441 71.713448,202.761627 71.856552,199.568649 
	C72.149963,196.648361 71.737534,193.465179 76.498405,194.908340 
	C75.839127,198.578552 74.978058,202.112869 74.604469,205.697968 
	C73.646896,214.887421 72.304733,224.096924 72.265648,233.303268 
	C72.233459,240.885559 75.847626,243.421204 83.314301,242.894958 
	C87.943733,242.191635 90.728142,239.628967 92.445831,235.770203 
	C95.235809,229.502518 98.019142,223.231857 100.956818,216.642654 
	C101.416832,215.221527 101.725319,214.120193 102.307907,212.899445 
	C102.736526,212.214798 102.891037,211.649551 103.344620,210.968140 
	C104.696358,209.596054 105.749031,208.340134 107.023254,206.958481 
	C107.487480,206.599976 107.730164,206.367203 108.217148,206.110016 
	C108.812202,206.201721 109.009834,206.443176 109.045151,207.197327 
	C109.037735,208.101273 109.039497,208.617874 108.903465,209.445557 
	C106.489906,213.479324 104.214149,217.202011 101.648056,221.130096 
	C98.651062,227.469711 95.944397,233.603958 93.003029,240.270111 
	C100.283150,240.986404 107.065292,241.616730 113.923416,238.712463 
	C114.470528,238.501297 114.738571,238.263885 115.313721,238.021759 
	C116.088211,237.705261 116.555603,237.393448 117.330780,236.932190 
	C121.458427,232.544754 125.278282,228.306763 129.421585,223.954163 
	C130.438019,222.211655 131.131012,220.583771 131.892548,218.585983 
	C132.686340,216.142044 133.411575,214.067993 134.447784,211.996490 
	C135.379837,212.009323 136.000900,212.019608 136.621979,212.029907 
M127.854820,231.670288 
	C125.976036,233.641281 124.097260,235.612259 122.218475,237.583237 
	C122.325516,238.195755 122.432556,238.808258 122.539604,239.420776 
	C128.216522,239.583115 133.988846,240.464371 139.546356,239.726868 
	C146.581711,238.793274 154.249207,237.958344 160.207886,234.561539 
	C172.079025,227.794235 176.084045,215.967926 175.935577,202.670807 
	C175.883026,197.965927 172.744171,193.606094 169.133041,193.046600 
	C163.914612,192.238068 161.486084,194.392029 158.871231,199.970551 
	C154.857162,208.534149 150.963852,217.445602 140.274933,221.028809 
	C133.369034,220.917053 130.966827,226.237915 127.854820,231.670288 
z"/>
<path fill="#676769" opacity="1.000000" stroke="none" 
	d="
M105.167267,32.890213 
	C106.768044,34.562840 108.955238,35.971611 109.850624,37.961620 
	C111.873154,42.456741 114.197777,47.147625 114.662346,51.927704 
	C115.237267,57.843239 118.540909,60.387047 123.148705,62.577431 
	C138.166473,69.716347 147.683914,82.193626 154.705124,96.603218 
	C156.490875,100.268105 158.397919,101.586807 161.876587,101.912323 
	C170.062134,102.678284 176.503769,106.921028 182.552429,112.094322 
	C187.079575,115.966278 187.888519,120.679161 186.331604,126.085762 
	C183.929077,134.428925 178.955963,140.924438 171.843658,145.790619 
	C169.375397,147.479385 166.877228,149.256699 164.144653,150.401443 
	C156.736984,153.504730 151.454132,158.799225 147.096649,165.233673 
	C148.237900,161.285202 149.700546,157.649307 151.428802,153.764038 
	C153.200729,147.773834 154.707062,142.033020 156.213394,136.292221 
	C156.892349,140.127274 156.356155,143.707947 155.934372,147.302032 
	C155.812286,148.342178 155.723984,150.177063 156.131165,150.335648 
	C157.216721,150.758453 158.678284,150.759766 159.806259,150.380722 
	C160.997787,149.980331 161.976639,148.947052 163.383423,148.083847 
	C168.454300,144.278549 173.190125,140.579636 178.219910,136.714020 
	C180.073746,133.826004 182.253677,131.269669 183.032990,128.340668 
	C183.960281,124.855606 184.884506,120.589989 183.689392,117.476646 
	C180.904755,110.222679 166.189392,103.312431 157.863510,104.527321 
	C158.365524,109.703514 158.871017,114.915588 159.376511,120.127663 
	C158.956375,120.181122 158.536240,120.234581 158.116104,120.288048 
	C157.428513,117.520706 156.740921,114.753365 156.072617,111.659409 
	C156.007187,110.905754 155.922485,110.478714 155.901703,109.716125 
	C155.602295,108.360115 155.238953,107.339653 154.922531,106.086174 
	C154.975571,105.530762 154.913849,105.221947 154.848297,104.614754 
	C153.662750,101.439453 152.413193,98.576088 151.015411,95.416855 
	C149.909470,93.413979 148.951752,91.706970 148.002579,89.646935 
	C145.018906,85.516708 142.026703,81.739510 139.017242,77.981308 
	C139.000000,78.000305 139.038132,77.965454 138.960678,77.656219 
	C137.932297,76.549606 136.981384,75.752220 135.905029,74.754517 
	C135.578888,74.303452 135.333679,74.108803 134.957977,73.640732 
	C130.731384,70.302574 126.821533,66.883011 122.389183,64.393829 
	C117.350410,61.564095 111.793892,59.669804 106.582176,57.123783 
	C105.457741,56.574471 104.844299,54.979137 104.319023,53.994583 
	C105.761482,54.414906 106.880402,54.706280 108.206512,55.272942 
	C109.948624,56.022415 111.483528,56.496601 113.068993,57.098896 
	C113.175949,57.150028 113.232361,57.073055 113.288773,56.996086 
	C113.174370,57.017429 113.059975,57.038773 113.110977,56.705341 
	C112.917953,54.882809 112.559517,53.415054 112.186798,51.619957 
	C112.047768,50.875271 111.923004,50.457924 111.818283,49.693642 
	C111.241638,47.897419 110.644936,46.448132 109.959946,44.714012 
	C109.536613,43.953968 109.201569,43.478760 108.945709,42.716309 
	C108.722740,42.198616 108.420586,41.968166 108.068565,41.451523 
	C107.924271,40.789688 107.829826,40.414055 107.806084,39.684597 
	C106.973610,37.183922 106.070435,35.037067 105.167267,32.890213 
z"/>
<path fill="#5A5A5D" opacity="1.000000" stroke="none" 
	d="
M26.968403,97.939529 
	C28.769302,92.021187 30.631422,86.120377 32.333462,80.173737 
	C32.838406,78.409546 32.892975,76.516449 33.070518,74.347519 
	C32.987122,74.012611 32.953171,74.043144 32.953171,74.043144 
	C34.167339,73.439255 35.937046,73.159775 36.508785,72.180725 
	C41.605862,63.452393 50.089638,59.392708 58.684528,55.260147 
	C61.128094,54.085236 63.673512,51.925011 64.869484,49.558323 
	C70.242615,38.925541 77.787155,30.658588 88.949959,26.206678 
	C91.563576,25.164324 94.684441,25.393858 97.814896,25.675886 
	C98.048851,26.609413 98.039841,26.905281 97.605942,27.196594 
	C86.346939,27.400427 79.145393,33.772972 72.508186,41.792469 
	C70.409782,45.871098 65.752846,48.683311 67.919136,53.902592 
	C66.543076,54.661419 65.268005,55.364559 63.629700,56.091091 
	C61.788532,56.744038 60.222645,57.223351 58.847469,58.028419 
	C51.854095,62.122578 43.435951,64.316612 39.175331,72.656952 
	C37.377228,74.977036 35.819435,77.066261 38.898232,79.549973 
	C39.005325,80.314674 39.055157,80.752136 38.773491,81.109406 
	C37.488823,80.495506 36.535648,79.961800 35.408291,79.330566 
	C34.688881,80.930161 34.023083,82.410538 33.195709,84.136223 
	C32.894299,85.622551 32.754463,86.863586 32.689945,88.349747 
	C32.869881,88.730095 32.974503,88.865303 32.858856,89.233765 
	C31.807461,91.179634 30.976330,92.892265 30.040541,94.913284 
	C29.646626,96.726562 29.357367,98.231438 29.187551,99.977554 
	C29.546452,100.482574 29.785906,100.746346 30.115414,101.256638 
	C30.167698,101.673981 30.129929,101.844818 29.700821,102.211334 
	C29.104269,103.535530 28.662560,104.678177 28.728981,105.790482 
	C29.902157,125.437202 34.418411,143.762741 49.195290,158.140198 
	C51.078728,159.972717 52.223373,162.564560 53.660049,164.771652 
	C53.609821,164.738678 53.522484,164.822968 53.330261,164.594910 
	C52.762981,164.285767 52.387928,164.204651 51.689003,163.961792 
	C47.625225,161.683578 46.658665,164.326736 45.657234,167.406845 
	C45.341625,168.147858 45.119915,168.553238 44.562241,168.958694 
	C43.804321,169.595779 43.382370,170.232788 42.720688,170.967346 
	C42.631683,171.413284 42.782417,171.761658 42.922997,172.074280 
	C42.912838,172.038513 42.848320,172.075455 42.806644,172.350555 
	C42.434864,173.054504 42.104763,173.483368 41.510620,174.133331 
	C39.111168,179.226303 36.975754,184.098206 34.621613,188.855652 
	C33.969158,188.507599 33.535423,188.273987 33.101692,188.040375 
	C36.930145,179.676056 40.508236,171.182220 44.730999,163.021957 
	C46.097954,160.380417 46.341038,158.977036 44.382202,156.695374 
	C30.845936,140.928238 26.687178,121.997169 26.463697,101.149933 
	C26.779226,99.603226 26.873816,98.771378 26.968403,97.939529 
z"/>
<path fill="#E6E6E8" opacity="1.000000" stroke="none" 
	d="
M72.783211,41.569847 
	C79.145393,33.772972 86.346939,27.400427 97.832123,27.315544 
	C98.728958,27.292519 98.974724,27.145983 99.220490,26.999447 
	C99.220490,26.999449 99.437805,27.374855 99.575729,27.769682 
	C101.520775,29.727467 103.327896,31.290424 105.135025,32.853382 
	C105.135025,32.853382 105.111961,32.904484 105.139618,32.897346 
	C106.070435,35.037067 106.973610,37.183922 107.483612,39.611198 
	C103.649513,35.809647 99.876724,32.550751 94.165009,31.754644 
	C89.643600,31.124445 82.319458,34.470867 81.459183,38.888054 
	C81.238579,40.020756 83.112350,42.648277 84.239296,42.782631 
	C92.434471,43.759636 100.684746,44.274567 108.953239,45.266083 
	C109.925339,47.077919 110.861794,48.559250 111.798241,50.040581 
	C111.923004,50.457924 112.047768,50.875271 111.858322,51.754456 
	C110.362526,53.143414 109.180923,54.070534 107.999321,54.997650 
	C106.880402,54.706280 105.761482,54.414906 104.136276,53.693195 
	C101.920395,52.400349 100.282700,51.008400 98.489044,50.764816 
	C89.605545,49.558434 80.680855,48.655334 71.762383,47.644394 
	C72.044212,45.967327 72.413712,43.768585 72.783211,41.569847 
M105.549988,52.513809 
	C105.549988,52.513809 105.478249,52.550705 105.549988,52.513809 
z"/>
<path fill="#6E6D6F" opacity="1.000000" stroke="none" 
	d="
M32.947968,188.368866 
	C33.535423,188.273987 33.969158,188.507599 34.599998,189.227203 
	C34.022720,192.038177 32.951405,194.314606 32.560780,196.702393 
	C32.198792,198.915131 31.869833,201.565918 32.742226,203.465378 
	C35.189087,208.793045 38.263771,213.832367 41.048969,219.251328 
	C39.319122,222.184692 39.318962,218.534119 38.265911,218.777649 
	C38.255974,218.767715 38.231068,218.755341 38.188595,218.430573 
	C37.495895,217.014923 36.845669,215.924042 35.922791,214.637573 
	C34.094685,212.247849 32.539230,210.053696 30.671976,207.710876 
	C30.011421,206.713943 29.578360,205.889771 29.327948,205.013397 
	C27.973011,200.271484 24.344198,198.100525 19.949551,197.244766 
	C15.858222,196.448059 12.073954,198.349609 11.225748,202.159576 
	C10.315586,206.247864 11.223688,210.740952 11.302197,215.429413 
	C13.795843,220.901382 16.325607,226.001328 18.913090,231.413300 
	C19.786037,232.604034 20.601269,233.482712 21.442165,234.444565 
	C21.467829,234.527756 21.629414,234.592636 21.743078,234.848145 
	C22.605808,235.937622 23.354874,236.771576 24.048658,238.084885 
	C23.962038,238.884399 23.930700,239.204559 23.899364,239.524719 
	C12.790570,230.098587 7.097869,218.156433 8.282147,203.561188 
	C8.895938,195.996704 18.012621,192.364960 25.015566,196.364197 
	C26.279430,197.085938 27.414164,198.033798 29.026400,199.172379 
	C30.361723,195.460022 31.577982,192.078674 32.947968,188.368866 
z"/>
<path fill="#5E5D61" opacity="1.000000" stroke="none" 
	d="
M109.041260,209.134476 
	C109.039497,208.617874 109.037735,208.101273 109.377029,207.113251 
	C113.532242,204.950745 116.023544,202.185791 114.850807,197.891602 
	C113.645035,193.476440 111.706459,189.261398 110.029160,184.565872 
	C109.207962,183.786362 108.476250,183.316605 107.678963,183.028107 
	C104.799835,181.986389 101.898659,181.005630 99.455360,179.995300 
	C102.202553,180.147125 104.522514,180.155258 106.793533,180.492737 
	C113.017563,181.417618 119.063042,181.316910 125.220695,178.061630 
	C123.900505,177.206345 122.962540,176.598694 121.966202,175.653931 
	C123.615189,175.723099 125.322548,176.129364 127.068085,176.830902 
	C127.387276,178.059448 127.668297,178.992737 127.949326,179.926010 
	C123.233566,181.289841 118.517799,182.653671 113.780991,184.023605 
	C115.132729,188.768509 116.641159,194.063400 117.746155,197.942169 
	C123.430878,199.595215 128.688568,200.284729 132.956955,202.713104 
	C135.149185,203.960312 135.576080,208.310501 136.711365,211.644165 
	C136.000900,212.019608 135.379837,212.009323 134.367371,211.604156 
	C133.672104,204.954941 129.986069,201.933807 122.628540,202.139435 
	C119.719925,203.470673 117.189926,204.881516 114.547668,206.298340 
	C114.435410,206.304306 114.343010,206.509262 114.079384,206.654114 
	C112.882286,207.534470 111.948822,208.269943 110.686615,209.037476 
	C109.919006,209.091171 109.480133,209.112823 109.041260,209.134476 
z"/>
<path fill="#E3E2E7" opacity="1.000000" stroke="none" 
	d="
M151.163208,154.013428 
	C149.700546,157.649307 148.237900,161.285202 146.761017,165.310364 
	C146.165512,166.259323 145.584244,166.819000 144.555603,167.616791 
	C142.866089,168.634171 141.623947,169.413422 140.055756,170.039154 
	C137.891556,169.918228 136.053406,169.950836 133.958984,170.091675 
	C133.462616,170.474762 133.222504,170.749603 132.990356,171.012054 
	C132.998337,170.999680 133.026428,170.990723 132.698059,170.989990 
	C131.934586,171.024323 131.499496,171.059372 131.049957,170.862320 
	C131.035522,170.630203 131.021515,170.165253 130.906555,169.922501 
	C130.523285,169.451736 130.254974,169.223724 129.994690,168.996780 
	C130.002701,168.997849 129.999313,169.015106 129.922577,168.678726 
	C128.033920,167.112839 126.221977,165.883331 124.410042,164.653824 
	C124.600464,164.182327 124.790886,163.710815 124.981308,163.239319 
	C126.645309,163.427643 128.402298,163.336533 129.956787,163.853897 
	C135.882019,165.825989 139.776581,164.900620 142.897675,159.615005 
	C145.659546,154.937759 147.720245,149.846481 150.391281,145.048416 
	C150.705795,147.151581 150.676727,149.145920 150.751785,151.136337 
	C150.788086,152.099182 151.019897,153.054626 151.163208,154.013428 
z"/>
<path fill="#CCCBD1" opacity="1.000000" stroke="none" 
	d="
M38.275848,218.787567 
	C39.318962,218.534119 39.319122,222.184692 41.359703,219.341370 
	C43.022236,220.096848 44.332203,221.028214 45.746284,222.397247 
	C46.556789,228.750229 47.263176,234.665527 47.969566,240.580826 
	C46.351040,240.526260 44.732510,240.471710 42.277802,240.233826 
	C38.605381,239.920410 35.769135,239.790329 33.036270,239.363724 
	C34.122826,238.070053 35.105999,237.072906 36.350090,235.913513 
	C37.430916,234.859619 38.250824,233.967957 39.427803,232.949707 
	C41.731274,229.690704 42.055573,226.691177 39.035843,223.961212 
	C39.012737,223.958649 39.057800,223.940125 39.027077,223.661713 
	C38.719925,222.912476 38.443497,222.441650 38.151962,221.571838 
	C38.183182,220.377762 38.229515,219.582672 38.275848,218.787567 
z"/>
<path fill="#656469" opacity="1.000000" stroke="none" 
	d="
M47.919640,240.867371 
	C47.263176,234.665527 46.556789,228.750229 45.780151,221.985260 
	C44.284119,211.057724 42.858345,200.979858 41.432568,190.901993 
	C44.974194,197.279587 46.476963,204.227463 47.041656,211.482620 
	C47.498089,217.346909 48.233967,223.189453 48.910057,229.401703 
	C49.068653,230.486572 49.163074,231.211380 49.181358,232.320343 
	C49.389309,234.473145 49.673397,236.241806 49.957481,238.010452 
	C49.973377,239.107162 49.989273,240.203857 50.019325,241.594498 
	C49.312225,241.643585 48.590969,241.398758 47.919640,240.867371 
z"/>
<path fill="#464647" opacity="1.000000" stroke="none" 
	d="
M140.381821,170.192688 
	C141.623947,169.413422 142.866089,168.634171 144.479309,167.912567 
	C145.170822,168.121002 145.491257,168.271774 145.781860,168.896378 
	C145.455994,169.618118 145.159943,169.866043 144.863907,170.113968 
	C142.628891,171.774872 140.393875,173.435776 138.467972,174.866974 
	C141.564682,179.335190 144.380829,183.398605 147.196976,187.462006 
	C146.793274,187.778702 146.389557,188.095413 145.985855,188.412109 
	C141.783279,184.352524 140.710098,176.499008 132.330841,176.619171 
	C131.559479,175.824799 131.221558,175.388794 131.067123,174.611588 
	C134.294342,172.911148 137.338089,171.551910 140.381821,170.192688 
z"/>
<path fill="#3B3B3B" opacity="1.000000" stroke="none" 
	d="
M130.883636,174.952789 
	C131.221558,175.388794 131.559479,175.824799 131.933136,176.541656 
	C132.292465,178.456223 132.273941,180.264908 133.003220,181.691223 
	C135.275085,186.134659 137.830154,190.433289 140.275406,194.788055 
	C139.907623,195.003494 139.539856,195.218918 139.172073,195.434341 
	C135.625656,190.385147 132.079239,185.335938 128.241074,180.106384 
	C127.668297,178.992737 127.387276,178.059448 127.405716,176.722443 
	C128.764664,175.863388 129.824158,175.408096 130.883636,174.952789 
z"/>
<path fill="#5A5A5D" opacity="1.000000" stroke="none" 
	d="
M26.048309,65.951447 
	C18.932325,62.390442 11.816342,58.829430 4.700360,55.268421 
	C12.436405,57.185650 19.798317,59.830849 25.847084,65.704834 
	C26.006653,65.991577 26.048309,65.951447 26.048309,65.951447 
z"/>
<path fill="#3B3B3B" opacity="1.000000" stroke="none" 
	d="
M6.269661,76.039978 
	C12.077474,77.382385 17.488558,78.699432 22.899643,80.016487 
	C22.735748,80.603836 22.571854,81.191185 22.407961,81.778534 
	C15.961286,80.254227 9.514610,78.729919 3.067936,77.205612 
	C3.036738,76.974617 3.005540,76.743629 2.974342,76.512642 
	C3.940539,76.346642 4.906736,76.180641 6.269661,76.039978 
z"/>
<path fill="#464647" opacity="1.000000" stroke="none" 
	d="
M26.602894,97.857262 
	C26.873816,98.771378 26.779226,99.603226 26.509098,100.695801 
	C22.882046,99.633919 19.526064,97.852524 15.954024,97.108742 
	C11.802803,96.244354 7.462185,96.289558 3.236784,95.614563 
	C11.073311,94.534554 18.816519,94.426163 26.602894,97.857262 
z"/>
<path fill="#656466" opacity="1.000000" stroke="none" 
	d="
M32.932892,239.660248 
	C35.769135,239.790329 38.605381,239.920410 41.873657,240.263031 
	C40.515053,240.975525 38.745979,241.774673 36.928753,241.905624 
	C34.173416,242.104172 31.384607,241.838272 28.274502,241.270050 
	C27.959419,240.562927 27.979851,240.355438 28.375664,240.043564 
	C29.523636,239.855621 30.296227,239.772049 31.379280,239.730682 
	C32.104122,239.735321 32.518509,239.697784 32.932892,239.660248 
z"/>
<path fill="#3B3B3B" opacity="1.000000" stroke="none" 
	d="
M145.094452,170.357544 
	C145.159943,169.866043 145.455994,169.618118 145.919830,169.132446 
	C148.787643,170.894562 151.487671,172.894409 154.136642,175.396210 
	C153.977127,176.026215 153.868683,176.154236 153.760254,176.282257 
	C150.948502,174.388535 148.136734,172.494827 145.094452,170.357544 
z"/>
<path fill="#5A5A5D" opacity="1.000000" stroke="none" 
	d="
M33.004986,73.998589 
	C30.678547,71.540794 28.334244,69.097031 26.019123,66.302353 
	C26.048309,65.951447 26.006653,65.991577 25.984661,66.010330 
	C28.332762,68.462952 30.702856,70.896828 33.013062,73.686920 
	C32.953171,74.043144 32.987122,74.012611 33.004986,73.998589 
z"/>
<path fill="#676769" opacity="1.000000" stroke="none" 
	d="
M105.272163,32.497665 
	C103.327896,31.290424 101.520775,29.727467 99.658417,27.840302 
	C103.332481,26.806408 104.237633,29.641434 105.272163,32.497665 
z"/>
<path fill="#656469" opacity="1.000000" stroke="none" 
	d="
M28.000284,240.147934 
	C27.979851,240.355438 27.959419,240.562927 27.901428,241.081757 
	C26.691843,240.915894 25.519817,240.438690 24.123577,239.743103 
	C23.930700,239.204559 23.962038,238.884399 24.330460,238.269379 
	C25.778458,238.699005 26.889370,239.423462 28.000284,240.147934 
z"/>
<path fill="#3B3B3B" opacity="1.000000" stroke="none" 
	d="
M154.252594,175.709900 
	C154.721878,175.915771 155.024155,176.309921 155.326447,176.704071 
	C154.933105,176.685913 154.539749,176.667755 153.953339,176.465927 
	C153.868683,176.154236 153.977127,176.026215 154.252594,175.709900 
z"/>
<path fill="#676769" opacity="1.000000" stroke="none" 
	d="
M99.038986,26.527142 
	C98.974724,27.145983 98.728958,27.292519 98.257004,27.320103 
	C98.039841,26.905281 98.048851,26.609413 98.061958,25.868860 
	C98.329872,25.634398 98.593674,25.844618 99.038986,26.527142 
z"/>
<path fill="#FBFBFC" opacity="1.000000" stroke="none" 
	d="
M49.257500,231.936203 
	C49.163074,231.211380 49.068653,230.486572 49.215820,229.112213 
	C49.301079,222.383636 49.605804,216.247070 48.856766,210.241959 
	C48.130093,204.416168 46.543678,198.661743 44.922661,192.993851 
	C43.421455,187.744904 38.826717,182.987091 42.955856,177.035019 
	C43.278748,176.569580 43.069160,175.734741 43.406937,174.985992 
	C44.464878,173.927689 45.222927,172.954987 45.988960,171.743149 
	C45.996937,171.504013 46.023415,171.026199 46.400940,171.008270 
	C49.187435,170.325729 51.596413,169.661148 54.199203,169.136810 
	C54.637707,169.489029 54.832264,169.739914 55.068871,170.373230 
	C57.098064,171.486526 59.035091,172.256241 60.986435,173.015930 
	C61.000755,173.005875 60.975346,173.034760 61.035934,173.379105 
	C63.524727,178.014404 67.468956,179.133896 72.269920,178.968033 
	C72.504723,178.983749 72.972931,179.031555 73.082932,179.370911 
	C76.795525,180.490189 80.398117,181.270126 84.339310,182.043243 
	C85.127945,181.998260 85.578003,181.960068 86.263275,181.953156 
	C86.498497,181.984421 86.968521,182.050034 87.000015,182.429565 
	C89.916122,183.840118 92.751503,185.548782 95.695488,185.762695 
	C102.050629,186.224518 110.013435,192.053207 111.497215,197.817596 
	C112.322670,201.024429 111.522018,203.074570 108.320107,203.899643 
	C104.535690,204.874832 102.663589,207.117630 103.045547,211.084305 
	C102.891037,211.649551 102.736526,212.214798 101.955215,212.935486 
	C100.540581,214.380066 99.752739,215.669189 98.736771,217.217865 
	C93.589401,226.098114 92.080734,236.810638 82.948601,242.847504 
	C75.847626,243.421204 72.233459,240.885559 72.265648,233.303268 
	C72.304733,224.096924 73.646896,214.887421 74.604469,205.697968 
	C74.978058,202.112869 75.839127,198.578552 76.498405,194.908340 
	C71.737534,193.465179 72.149963,196.648361 71.513512,199.714233 
	C71.086258,203.162415 71.054138,206.083893 71.022018,209.005356 
	C71.012115,209.442749 71.002205,209.880142 70.565964,210.749359 
	C69.108658,218.268356 67.773338,225.329300 67.160339,232.452438 
	C66.789925,236.756729 63.548954,241.580597 59.300453,241.855789 
	C57.206169,241.991486 55.060543,241.334686 52.938148,241.036484 
	C52.618320,240.611450 52.298492,240.186417 51.954193,239.085571 
	C51.038979,236.251892 50.148239,234.094055 49.257500,231.936203 
z"/>
<path fill="#F8F8F8" opacity="1.000000" stroke="none" 
	d="
M141.060883,221.163452 
	C150.963852,217.445602 154.857162,208.534149 158.871231,199.970551 
	C161.486084,194.392029 163.914612,192.238068 169.133041,193.046600 
	C172.744171,193.606094 175.883026,197.965927 175.935577,202.670807 
	C176.084045,215.967926 172.079025,227.794235 160.207886,234.561539 
	C154.249207,237.958344 146.581711,238.793274 139.546356,239.726868 
	C133.988846,240.464371 128.216522,239.583115 122.539604,239.420776 
	C122.432556,238.808258 122.325516,238.195755 122.218475,237.583237 
	C124.097260,235.612259 125.976036,233.641281 128.363617,231.346542 
	C132.935242,227.736343 136.998062,224.449905 141.060883,221.163452 
z"/>
<path fill="#F7F3F4" opacity="1.000000" stroke="none" 
	d="
M108.903458,209.445557 
	C109.480133,209.112823 109.919006,209.091171 110.812569,209.325806 
	C112.133171,210.397629 112.999084,211.213181 113.898956,212.406097 
	C112.878342,215.178177 111.823776,217.572876 110.540504,220.181458 
	C109.864273,221.571732 109.416748,222.748154 108.698639,224.165527 
	C109.290550,226.663788 109.584007,229.622574 111.208580,230.940353 
	C112.358704,231.873276 115.431358,230.914673 117.414513,230.177902 
	C118.792633,229.665909 119.777946,228.096573 121.018951,226.670624 
	C122.078163,225.092896 123.057175,223.844147 124.414413,222.694321 
	C126.227814,223.218414 127.662979,223.643600 129.098145,224.068771 
	C125.278282,228.306763 121.458427,232.544754 117.148170,236.739777 
	C116.107391,237.140030 115.557007,237.583252 115.006615,238.026459 
	C114.738571,238.263885 114.470528,238.501297 113.439178,238.523819 
	C111.185127,238.204498 109.653397,237.825470 108.210388,238.040863 
	C99.799431,239.296295 98.143852,234.625198 100.918373,227.445129 
	C101.693314,225.439713 101.621666,223.107178 101.938385,220.924698 
	C104.214149,217.202011 106.489906,213.479324 108.903458,209.445557 
z"/>
<path fill="#F7EFED" opacity="1.000000" stroke="none" 
	d="
M123.007141,202.219040 
	C129.986069,201.933807 133.672104,204.954941 134.056396,211.601624 
	C133.411575,214.067993 132.686340,216.142044 131.589478,218.455688 
	C129.111191,217.790070 126.971794,215.816483 124.707535,218.733139 
	C123.291313,217.094955 122.154465,215.609787 120.638725,214.078003 
	C118.514610,212.971436 116.769386,211.911514 115.020462,210.410538 
	C114.792175,208.816071 114.567589,207.662674 114.343010,206.509262 
	C114.343010,206.509262 114.435410,206.304306 114.746246,206.545197 
	C118.926575,207.386536 120.785637,204.487335 123.007141,202.219040 
M123.296318,207.874023 
	C122.846519,207.335312 122.396721,206.796616 121.946915,206.257919 
	C121.546249,206.675247 121.145584,207.092560 120.744926,207.509888 
	C121.463577,207.774658 122.182228,208.039444 123.296318,207.874023 
M121.157227,211.488770 
	C121.097694,211.173477 121.038162,210.858170 120.978615,210.542877 
	C120.906387,210.856186 120.834160,211.169510 121.157227,211.488770 
z"/>
<path fill="#E8E7EC" opacity="1.000000" stroke="none" 
	d="
M103.344620,210.968140 
	C102.663589,207.117630 104.535690,204.874832 108.320107,203.899643 
	C111.522018,203.074570 112.322670,201.024429 111.497215,197.817596 
	C110.013435,192.053207 102.050629,186.224518 95.695488,185.762695 
	C92.751503,185.548782 89.916122,183.840118 87.335670,182.390839 
	C88.088966,181.951508 88.538094,181.930435 89.260376,182.169830 
	C91.035179,182.599213 92.536827,182.768127 94.408722,182.947449 
	C95.519714,182.959793 96.260468,182.961700 97.285812,183.212860 
	C101.743118,183.960999 105.915840,184.459885 110.088554,184.958771 
	C111.706459,189.261398 113.645035,193.476440 114.850807,197.891602 
	C116.023544,202.185791 113.532242,204.950745 109.386215,206.725906 
	C109.009834,206.443176 108.812202,206.201721 107.929329,206.107224 
	C107.198723,206.447296 107.000214,206.765747 106.801712,207.084213 
	C105.749031,208.340134 104.696358,209.596054 103.344620,210.968140 
z"/>
<path fill="#CCCBD1" opacity="1.000000" stroke="none" 
	d="
M101.648056,221.130096 
	C101.621666,223.107178 101.693314,225.439713 100.918373,227.445129 
	C98.143852,234.625198 99.799431,239.296295 108.210388,238.040863 
	C109.653397,237.825470 111.185127,238.204498 113.160110,238.497574 
	C107.065292,241.616730 100.283150,240.986404 93.003029,240.270111 
	C95.944397,233.603958 98.651062,227.469711 101.648056,221.130096 
z"/>
<path fill="#DBDADE" opacity="1.000000" stroke="none" 
	d="
M53.075718,241.371338 
	C55.060543,241.334686 57.206169,241.991486 59.300453,241.855789 
	C63.548954,241.580597 66.789925,236.756729 67.160339,232.452438 
	C67.773338,225.329300 69.108658,218.268356 70.482269,211.067429 
	C70.518890,219.184341 70.465126,227.434631 69.828003,235.639603 
	C69.306938,242.349777 60.327530,245.473740 53.075718,241.371338 
z"/>
<path fill="#D2D1D7" opacity="1.000000" stroke="none" 
	d="
M83.314301,242.894958 
	C92.080734,236.810638 93.589401,226.098114 99.043839,217.222595 
	C99.987793,216.966034 100.396538,216.964249 100.805290,216.962463 
	C98.019142,223.231857 95.235809,229.502518 92.445831,235.770203 
	C90.728142,239.628967 87.943733,242.191635 83.314301,242.894958 
z"/>
<path fill="#DDABAE" opacity="1.000000" stroke="none" 
	d="
M124.986908,218.886169 
	C126.971794,215.816483 129.111191,217.790070 131.520935,218.825577 
	C131.131012,220.583771 130.438019,222.211655 129.421585,223.954163 
	C127.662979,223.643600 126.227814,223.218414 124.586250,222.428040 
	C124.582199,221.003952 124.784546,219.945068 124.986908,218.886169 
z"/>
<path fill="#CCCBD1" opacity="1.000000" stroke="none" 
	d="
M140.667908,221.096130 
	C136.998062,224.449905 132.935242,227.736343 128.516571,231.047195 
	C130.966827,226.237915 133.369034,220.917053 140.667908,221.096130 
z"/>
<path fill="#DBDADE" opacity="1.000000" stroke="none" 
	d="
M71.276733,208.695312 
	C71.054138,206.083893 71.086258,203.162415 71.461411,200.095367 
	C71.713448,202.761627 71.622444,205.573441 71.276733,208.695312 
z"/>
<path fill="#DBDADE" opacity="1.000000" stroke="none" 
	d="
M49.181362,232.320343 
	C50.148239,234.094055 51.038979,236.251892 51.901680,238.807129 
	C51.400642,238.902771 50.927639,238.601044 50.206062,238.154892 
	C49.673397,236.241806 49.389309,234.473145 49.181362,232.320343 
z"/>
<path fill="#E8E7EC" opacity="1.000000" stroke="none" 
	d="
M100.956818,216.642654 
	C100.396538,216.964249 99.987793,216.966034 99.271973,216.963074 
	C99.752739,215.669189 100.540581,214.380066 101.681107,213.054901 
	C101.725319,214.120193 101.416832,215.221527 100.956818,216.642654 
z"/>
<path fill="#CCCBD1" opacity="1.000000" stroke="none" 
	d="
M115.313721,238.021774 
	C115.557007,237.583252 116.107391,237.140030 116.840378,236.889221 
	C116.555603,237.393448 116.088211,237.705261 115.313721,238.021774 
z"/>
<path fill="#5E5D61" opacity="1.000000" stroke="none" 
	d="
M107.023247,206.958481 
	C107.000214,206.765747 107.198723,206.447296 107.685043,206.131622 
	C107.730164,206.367203 107.487480,206.599976 107.023247,206.958481 
z"/>
<path fill="#FCFCFC" opacity="1.000000" stroke="none" 
	d="
M150.090515,144.937988 
	C147.720245,149.846481 145.659546,154.937759 142.897675,159.615005 
	C139.776581,164.900620 135.882019,165.825989 129.956787,163.853897 
	C128.402298,163.336533 126.645309,163.427643 124.981308,163.239319 
	C124.790886,163.710815 124.600464,164.182327 124.410042,164.653824 
	C126.221977,165.883331 128.033920,167.112839 129.705017,168.857422 
	C128.340851,169.381653 127.114510,169.340866 125.894981,169.413757 
	C124.617966,169.490097 122.436340,169.322357 122.223473,169.871338 
	C120.936951,173.189484 118.839378,171.310913 116.886673,170.865662 
	C116.534279,170.814072 116.270889,170.908005 116.031433,171.324646 
	C116.387215,172.435501 116.719063,173.223679 116.714645,174.199310 
	C113.535294,174.922394 110.598557,176.203003 107.866013,175.859451 
	C98.143005,174.637054 88.489517,172.861710 78.456390,171.247757 
	C77.383598,171.218628 76.664124,171.237488 75.897675,170.897827 
	C74.896049,170.045639 73.941422,169.551956 72.990097,169.044769 
	C72.993393,169.031281 72.995415,169.003555 72.898140,168.663834 
	C71.535553,167.879654 70.270233,167.435196 68.708435,166.853577 
	C67.271042,166.147415 66.130135,165.578430 64.987610,164.629059 
	C65.219215,159.945328 60.563267,161.243622 58.769333,158.761414 
	C56.372192,157.002228 54.193157,155.494598 51.996254,153.616241 
	C49.896061,150.591827 50.346836,145.486343 44.920494,145.819366 
	C44.862640,145.625351 44.817883,145.222931 44.862312,144.830597 
	C44.445881,143.038803 44.254971,141.464279 43.479618,140.268784 
	C39.001526,133.363983 36.021114,125.952271 35.141834,117.720215 
	C34.936268,115.795670 34.370533,113.909607 33.978851,111.576202 
	C34.032764,109.169136 34.078331,107.191704 34.351276,105.011688 
	C34.363754,103.896347 34.148861,102.983582 33.923691,101.747803 
	C34.853447,99.993408 35.554852,97.732445 36.803299,97.373344 
	C37.959114,97.040901 39.719666,98.710190 41.174740,99.564690 
	C41.827335,99.947922 42.384365,100.493904 43.130051,101.289543 
	C45.798180,107.874588 50.909813,111.030502 57.107380,113.389786 
	C60.012951,115.479424 62.708858,116.335075 65.394707,112.991264 
	C70.607399,109.358696 70.273445,103.699852 65.003906,99.997185 
	C65.000000,100.000000 65.005936,99.992523 64.952042,99.660423 
	C63.921719,98.561035 62.945293,97.793747 61.643192,97.010345 
	C60.882938,96.987030 60.448364,96.979828 59.793678,96.950882 
	C59.573574,96.929138 59.132664,96.893402 59.121964,96.571716 
	C59.081589,95.821930 59.051918,95.393829 58.950802,94.663757 
	C58.248466,93.911331 57.617573,93.460869 56.617371,92.938553 
	C52.519859,92.545425 48.791653,92.224144 45.044495,91.536102 
	C43.052029,87.842751 41.078506,84.516174 39.104984,81.189590 
	C39.055157,80.752136 39.005325,80.314674 39.039886,79.271217 
	C39.412979,78.110847 39.701687,77.556473 40.278374,76.846497 
	C42.019154,74.780846 43.471951,72.870804 44.989674,70.670975 
	C45.872868,69.957001 47.080261,69.746910 47.449554,69.075714 
	C51.377304,61.936878 58.735001,61.278881 65.415565,59.197983 
	C67.116585,58.668140 68.495453,57.104034 70.489334,56.020931 
	C80.478790,56.789341 90.189964,56.635990 99.475441,58.548958 
	C110.805252,60.883095 121.201111,66.204979 130.955795,72.570335 
	C132.125107,73.333359 133.672043,73.517670 135.043961,73.970222 
	C135.333679,74.108803 135.578888,74.303452 135.886597,75.121857 
	C137.008438,76.448174 138.023285,77.206818 139.038132,77.965454 
	C139.038132,77.965454 139.000000,78.000305 138.987946,78.357880 
	C141.016647,82.448662 143.057373,86.181854 145.121109,90.274582 
	C146.767609,95.416725 148.391113,100.199356 150.010590,105.432220 
	C150.056870,115.424660 150.061584,124.967697 150.236679,134.507614 
	C150.252121,135.348740 151.381226,136.169449 151.982254,137.386414 
	C151.344467,140.161469 150.717484,142.549728 150.090515,144.937988 
M112.321808,135.695618 
	C110.864807,135.475204 109.407806,135.254776 107.206970,135.066040 
	C104.404778,135.790970 101.244141,136.063965 100.263916,140.142303 
	C97.131195,142.292358 96.697884,144.565201 100.090454,147.707108 
	C102.784554,155.238876 108.644951,158.975784 116.767403,160.983124 
	C122.264374,161.116928 123.258186,157.176636 124.357719,152.623947 
	C123.909393,152.081207 123.461067,151.538467 122.526604,150.983780 
	C122.526604,150.983780 122.040474,150.971344 122.036530,150.316727 
	C122.041985,149.880356 122.047432,149.443985 122.656685,148.837616 
	C124.216988,145.863983 123.275436,144.284805 119.629791,143.445328 
	C117.418678,141.298309 115.207558,139.151276 113.001160,136.503220 
	C113.001762,136.336197 113.002373,136.169174 113.188110,135.912308 
	C113.188110,135.912308 113.202744,135.667297 113.202744,135.667297 
	C113.202744,135.667297 112.997810,135.996948 112.321808,135.695618 
M92.049469,111.851837 
	C93.172737,112.563560 94.295998,113.275291 95.419266,113.987015 
	C95.618790,113.319580 95.818314,112.652145 95.775024,111.399689 
	C95.002411,110.567001 94.229790,109.734314 93.457169,108.901634 
	C93.017319,109.640923 92.577477,110.380203 92.049469,111.851837 
M85.967659,143.971207 
	C85.967659,143.971207 86.029900,143.970856 86.738564,144.006378 
	C87.820114,142.661789 88.901657,141.317184 90.243034,139.403214 
	C90.949936,138.637024 91.656837,137.870834 93.049751,137.063675 
	C95.012123,134.345215 96.974487,131.626770 99.409851,128.356842 
	C102.121780,126.333084 100.767487,126.229431 98.469658,126.093452 
	C92.485367,125.739304 91.174934,124.000099 91.966499,118.078827 
	C92.090561,117.150780 91.881210,116.178169 91.890434,116.337273 
	C87.756248,116.490410 83.914818,116.632698 79.723679,116.231255 
	C77.479156,118.829056 75.234627,121.426849 72.375908,124.039284 
	C72.532524,124.393196 72.689148,124.747108 72.919731,125.095154 
	C72.919731,125.095154 72.866890,125.147240 72.629440,125.721970 
	C72.030388,127.117477 71.431343,128.512985 70.891586,129.983383 
	C70.891586,129.983383 70.965759,129.923203 70.405640,129.982254 
	C70.289085,130.313568 70.172531,130.644882 69.729225,131.594116 
	C69.439323,132.686523 69.149414,133.778915 68.102562,134.917801 
	C64.851967,140.034454 65.373001,142.988037 69.919716,145.089310 
	C69.919716,145.089310 69.835884,145.116074 69.563728,145.888443 
	C74.868347,149.416718 79.277687,149.140213 84.267273,145.174942 
	C84.267273,145.174942 84.554405,145.107315 85.042427,145.072037 
	C85.347725,144.725616 85.653023,144.379196 85.967659,143.971207 
M117.154465,131.667007 
	C118.772285,132.444016 120.390106,133.221024 122.524094,134.167313 
	C122.887253,134.570343 123.250412,134.973373 123.352966,136.155807 
	C124.504677,139.115494 125.656387,142.075165 126.953781,145.676559 
	C126.970604,146.114670 126.987427,146.552765 127.017052,147.606415 
	C127.647530,148.171555 128.278015,148.736679 128.908493,149.301819 
	C128.947418,148.536774 128.986343,147.771729 129.204178,146.293594 
	C130.914932,139.954803 129.318222,136.176910 123.076500,131.087326 
	C120.400124,129.773911 117.723740,128.460480 114.613762,126.675560 
	C113.547302,126.899719 112.480843,127.123878 111.414375,127.348030 
	C111.405800,127.842476 111.397224,128.336929 111.388649,128.831375 
	C113.264732,129.549301 115.140816,130.267227 117.000610,131.000610 
	C117.000610,131.000610 117.012299,130.983337 117.154465,131.667007 
M73.377487,89.064529 
	C72.270409,88.122269 71.023911,87.301331 70.080193,86.216911 
	C65.833809,81.337433 60.641163,80.580711 54.369843,82.923630 
	C64.632858,83.385818 70.891586,89.409195 75.856033,97.300880 
	C75.184669,94.746330 74.513306,92.191772 73.377487,89.064529 
M36.564716,108.453064 
	C37.011955,108.181198 37.459194,107.909332 37.906437,107.637474 
	C37.352516,107.172760 36.798595,106.708054 36.244675,106.243340 
	C36.204105,106.861496 36.163532,107.479660 36.564716,108.453064 
z"/>
<path fill="#D2D1D7" opacity="1.000000" stroke="none" 
	d="
M134.957977,73.640732 
	C133.672043,73.517670 132.125107,73.333359 130.955795,72.570335 
	C121.201111,66.204979 110.805252,60.883095 99.475441,58.548958 
	C90.189964,56.635990 80.478790,56.789341 70.149246,56.060875 
	C67.559097,56.085915 65.776016,56.076805 63.992931,56.067696 
	C65.268005,55.364559 66.543076,54.661419 67.919136,53.902592 
	C65.752846,48.683311 70.409782,45.871098 72.508186,41.792469 
	C72.413712,43.768585 72.044212,45.967327 71.762383,47.644394 
	C80.680855,48.655334 89.605545,49.558434 98.489044,50.764816 
	C100.282700,51.008400 101.920395,52.400349 103.812744,53.564243 
	C104.844299,54.979137 105.457741,56.574471 106.582176,57.123783 
	C111.793892,59.669804 117.350410,61.564095 122.389183,64.393829 
	C126.821533,66.883011 130.731384,70.302574 134.957977,73.640732 
z"/>
<path fill="#E8E8EB" opacity="1.000000" stroke="none" 
	d="
M177.925964,136.880737 
	C173.190125,140.579636 168.454300,144.278549 163.174011,147.837646 
	C158.743729,147.889526 158.794418,145.421814 159.094131,142.626053 
	C159.473160,139.090683 159.694061,135.538361 160.242798,131.678040 
	C160.982971,123.134514 161.463486,114.906281 162.000168,105.716080 
	C165.512772,107.565353 168.763199,109.276596 171.692047,110.963326 
	C165.868027,110.628448 166.000412,114.313690 165.975845,118.211929 
	C165.939621,123.952995 165.453720,129.691711 165.439178,135.432144 
	C165.434753,137.176483 166.353607,138.923141 166.849594,140.668747 
	C168.559448,139.928802 170.422348,139.415497 171.939835,138.390701 
	C173.775925,137.150726 175.319717,135.477905 177.029480,134.295715 
	C177.354630,135.359589 177.640289,136.120163 177.925964,136.880737 
z"/>
<path fill="#D2D1D6" opacity="1.000000" stroke="none" 
	d="
M172.013626,110.987839 
	C168.763199,109.276596 165.512772,107.565353 162.000168,105.716080 
	C161.463486,114.906281 160.982971,123.134514 159.939148,131.542953 
	C157.305893,132.490875 155.235947,133.258575 153.134384,133.593933 
	C153.432938,128.445435 153.763092,123.729309 154.292328,118.807800 
	C154.643326,118.059174 154.795242,117.515930 154.960510,116.645737 
	C154.976349,115.882530 154.978821,115.446274 154.987106,114.667572 
	C154.963303,113.869301 154.933670,113.413483 155.046600,112.741531 
	C155.477219,112.345604 155.765274,112.165817 156.053329,111.986031 
	C156.740921,114.753365 157.428513,117.520706 158.116104,120.288048 
	C158.536240,120.234581 158.956375,120.181122 159.376511,120.127663 
	C158.871017,114.915588 158.365524,109.703514 157.863510,104.527321 
	C166.189392,103.312431 180.904755,110.222679 183.689392,117.476646 
	C184.884506,120.589989 183.960281,124.855606 183.032990,128.340668 
	C182.253677,131.269669 180.073746,133.826004 178.219910,136.714020 
	C177.640289,136.120163 177.354630,135.359589 177.287292,134.068665 
	C183.693970,123.134178 182.135101,116.733383 172.013626,110.987839 
z"/>
<path fill="#FBFBFC" opacity="1.000000" stroke="none" 
	d="
M108.917595,44.935570 
	C100.684746,44.274567 92.434471,43.759636 84.239296,42.782631 
	C83.112350,42.648277 81.238579,40.020756 81.459183,38.888054 
	C82.319458,34.470867 89.643600,31.124445 94.165009,31.754644 
	C99.876724,32.550751 103.649513,35.809647 107.412918,39.965019 
	C107.829826,40.414055 107.924271,40.789688 108.124580,41.697586 
	C108.442474,42.487747 108.654495,42.745651 108.866524,43.003551 
	C109.201569,43.478760 109.536613,43.953968 109.678070,44.684223 
	C109.295517,44.938030 109.106552,44.936798 108.917595,44.935570 
z"/>
<path fill="#CCCBD1" opacity="1.000000" stroke="none" 
	d="
M153.165985,134.026291 
	C155.235947,133.258575 157.305893,132.490875 159.679504,131.858246 
	C159.694061,135.538361 159.473160,139.090683 159.094131,142.626053 
	C158.794418,145.421814 158.743729,147.889526 162.838959,147.944046 
	C161.976639,148.947052 160.997787,149.980331 159.806259,150.380722 
	C158.678284,150.759766 157.216721,150.758453 156.131165,150.335648 
	C155.723984,150.177063 155.812286,148.342178 155.934372,147.302032 
	C156.356155,143.707947 156.892349,140.127274 156.213394,136.292221 
	C154.707062,142.033020 153.200729,147.773834 151.428802,153.764038 
	C151.019897,153.054626 150.788086,152.099182 150.751785,151.136337 
	C150.676727,149.145920 150.705795,147.151581 150.391281,145.048416 
	C150.717484,142.549728 151.344467,140.161469 152.230652,137.169312 
	C152.715240,135.719040 152.940613,134.872665 153.165985,134.026291 
z"/>
<path fill="#F5F5F7" opacity="1.000000" stroke="none" 
	d="
M153.134399,133.593933 
	C152.940613,134.872665 152.715240,135.719040 152.241470,136.782532 
	C151.381226,136.169449 150.252121,135.348740 150.236679,134.507614 
	C150.061584,124.967697 150.056870,115.424660 150.379547,105.438721 
	C151.491394,105.003357 152.230209,105.011726 153.423859,105.016602 
	C154.180557,104.984306 154.482407,104.955498 154.784271,104.926689 
	C154.913849,105.221947 154.975571,105.530762 154.693665,106.428253 
	C154.891159,108.019470 155.364456,109.035576 155.837769,110.051682 
	C155.922485,110.478714 156.007187,110.905754 156.072617,111.659409 
	C155.765274,112.165817 155.477219,112.345604 154.788834,112.814392 
	C154.586105,113.738922 154.783707,114.374474 154.981293,115.010025 
	C154.978821,115.446274 154.976349,115.882530 154.695374,116.701118 
	C154.308990,117.726700 154.201111,118.369942 154.093246,119.013184 
	C153.763092,123.729309 153.432938,128.445435 153.134399,133.593933 
z"/>
<path fill="#E8E8EB" opacity="1.000000" stroke="none" 
	d="
M152.969025,105.020088 
	C152.230209,105.011726 151.491394,105.003357 150.383606,104.988495 
	C148.391113,100.199356 146.767609,95.416725 145.480576,90.302841 
	C146.542709,89.981041 147.268387,89.990501 147.994049,89.999954 
	C148.951752,91.706970 149.909470,93.413979 150.969879,95.839035 
	C151.704727,99.378082 152.336884,102.199081 152.969025,105.020088 
z"/>
<path fill="#D2D1D7" opacity="1.000000" stroke="none" 
	d="
M148.002579,89.646927 
	C147.268387,89.990501 146.542709,89.981041 145.457581,89.943314 
	C143.057373,86.181854 141.016647,82.448662 139.005203,78.338882 
	C142.026703,81.739510 145.018906,85.516708 148.002579,89.646927 
z"/>
<path fill="#D2D1D7" opacity="1.000000" stroke="none" 
	d="
M108.206512,55.272942 
	C109.180923,54.070534 110.362526,53.143414 111.872604,52.081795 
	C112.559517,53.415054 112.917953,54.882809 113.129463,56.683220 
	C112.982536,57.015881 113.018440,56.970787 113.018440,56.970787 
	C111.483528,56.496601 109.948624,56.022415 108.206512,55.272942 
z"/>
<path fill="#D2D1D6" opacity="1.000000" stroke="none" 
	d="
M153.423859,105.016602 
	C152.336884,102.199081 151.704727,99.378082 151.118103,96.134903 
	C152.413193,98.576088 153.662750,101.439453 154.848297,104.614754 
	C154.482407,104.955498 154.180557,104.984306 153.423859,105.016602 
z"/>
<path fill="#D2D1D7" opacity="1.000000" stroke="none" 
	d="
M108.953239,45.266083 
	C109.106552,44.936798 109.295517,44.938030 109.766357,44.969055 
	C110.644936,46.448132 111.241638,47.897419 111.818283,49.693642 
	C110.861794,48.559250 109.925339,47.077919 108.953239,45.266083 
z"/>
<path fill="#D2D1D6" opacity="1.000000" stroke="none" 
	d="
M155.901703,109.716125 
	C155.364456,109.035576 154.891159,108.019470 154.646729,106.661285 
	C155.238953,107.339653 155.602295,108.360115 155.901703,109.716125 
z"/>
<path fill="#D2D1D7" opacity="1.000000" stroke="none" 
	d="
M138.960678,77.656219 
	C138.023285,77.206818 137.008438,76.448174 136.012024,75.322189 
	C136.981384,75.752220 137.932297,76.549606 138.960678,77.656219 
z"/>
<path fill="#D2D1D7" opacity="1.000000" stroke="none" 
	d="
M112.964050,57.038002 
	C113.059975,57.038773 113.174370,57.017429 113.288773,56.996086 
	C113.232361,57.073055 113.175949,57.150028 113.068993,57.098892 
	C113.018440,56.970787 112.982536,57.015881 112.964050,57.038002 
z"/>
<path fill="#E6E6E8" opacity="1.000000" stroke="none" 
	d="
M108.945709,42.716309 
	C108.654495,42.745651 108.442474,42.487747 108.174438,41.983780 
	C108.420586,41.968166 108.722740,42.198616 108.945709,42.716309 
z"/>
<path fill="#DBDADE" opacity="1.000000" stroke="none" 
	d="
M43.107048,175.071594 
	C43.069160,175.734741 43.278748,176.569580 42.955856,177.035019 
	C38.826717,182.987091 43.421455,187.744904 44.922661,192.993851 
	C46.543678,198.661743 48.130093,204.416168 48.856766,210.241959 
	C49.605804,216.247070 49.301079,222.383636 49.151642,228.752167 
	C48.233967,223.189453 47.498089,217.346909 47.041656,211.482620 
	C46.476963,204.227463 44.974194,197.279587 41.432568,190.901993 
	C42.858345,200.979858 44.284119,211.057724 45.676033,221.547577 
	C44.332203,221.028214 43.022236,220.096848 41.401535,219.075470 
	C38.263771,213.832367 35.189087,208.793045 32.742226,203.465378 
	C31.869833,201.565918 32.198792,198.915131 32.560780,196.702393 
	C32.951405,194.314606 34.022720,192.038177 34.818718,189.341644 
	C36.975754,184.098206 39.111168,179.226303 41.771332,174.277374 
	C42.566402,174.490768 42.836727,174.781174 43.107048,175.071594 
M35.505188,203.737839 
	C37.037941,205.461929 38.570690,207.186020 40.103443,208.910095 
	C40.789875,208.594254 41.476311,208.278412 42.162746,207.962555 
	C41.018932,203.405731 39.875118,198.848907 38.674244,194.064758 
	C32.659199,196.065720 33.639252,199.489777 35.505188,203.737839 
z"/>
<path fill="#CFCED3" opacity="1.000000" stroke="none" 
	d="
M33.933964,102.070824 
	C34.148861,102.983582 34.363754,103.896347 33.987511,104.977097 
	C29.206451,107.095154 31.688169,110.245682 32.043877,113.407104 
	C33.395130,119.529953 34.055439,125.493156 36.156467,130.896103 
	C38.157013,136.040619 39.391354,142.008469 44.817883,145.222931 
	C44.817883,145.222931 44.862640,145.625351 44.800121,146.114197 
	C46.792480,149.095795 48.847363,151.588577 50.975891,154.414764 
	C53.700302,157.497467 56.351067,160.246765 59.121597,163.248993 
	C59.496956,163.999100 59.752548,164.496292 59.592712,164.996674 
	C58.059185,165.033188 56.941097,165.066483 55.466606,165.086334 
	C54.643566,164.983475 54.176922,164.894058 53.710281,164.804626 
	C52.223373,162.564560 51.078728,159.972717 49.195290,158.140198 
	C34.418411,143.762741 29.902157,125.437202 28.728981,105.790482 
	C28.662560,104.678177 29.104269,103.535530 30.084095,102.167816 
	C31.883793,101.976021 32.908878,102.023422 33.933964,102.070824 
z"/>
<path fill="#EAE8EA" opacity="1.000000" stroke="none" 
	d="
M33.923691,101.747803 
	C32.908878,102.023422 31.883793,101.976021 30.475433,101.972137 
	C30.129929,101.844818 30.167698,101.673981 30.132732,100.955132 
	C29.729366,100.183517 29.398737,99.959915 29.068108,99.736320 
	C29.357367,98.231438 29.646626,96.726562 30.423468,94.934097 
	C32.378685,93.786629 33.846321,92.926735 35.524582,92.294617 
	C37.789650,93.566185 39.844097,94.609962 41.898544,95.653740 
	C42.316906,95.208061 42.735268,94.762383 43.153633,94.316711 
	C41.561565,91.595345 39.969501,88.873978 37.827019,85.211769 
	C36.419350,87.643333 35.781059,88.745895 34.878590,89.757256 
	C34.102646,89.444206 33.590885,89.222366 33.079121,89.000519 
	C32.974503,88.865303 32.869881,88.730095 32.987831,88.164047 
	C33.259365,86.452454 33.308323,85.171684 33.357285,83.890923 
	C34.023083,82.410538 34.688881,80.930161 35.408291,79.330566 
	C36.535648,79.961800 37.488823,80.495506 38.773491,81.109406 
	C41.078506,84.516174 43.052029,87.842751 44.883087,91.795670 
	C44.155342,95.270020 43.570049,98.118027 42.984756,100.966034 
	C42.384365,100.493904 41.827335,99.947922 41.174740,99.564690 
	C39.719666,98.710190 37.959114,97.040901 36.803299,97.373344 
	C35.554852,97.732445 34.853447,99.993408 33.923691,101.747803 
z"/>
<path fill="#DFDEE1" opacity="1.000000" stroke="none" 
	d="
M63.629700,56.091095 
	C65.776016,56.076805 67.559097,56.085915 69.682259,56.055084 
	C68.495453,57.104034 67.116585,58.668140 65.415565,59.197983 
	C58.735001,61.278881 51.377304,61.936878 47.449554,69.075714 
	C47.080261,69.746910 45.872868,69.957001 44.661888,70.732132 
	C42.867802,71.743530 41.466423,72.403976 39.906006,72.901749 
	C39.746975,72.739075 39.416702,72.426109 39.416702,72.426109 
	C43.435951,64.316612 51.854095,62.122578 58.847469,58.028419 
	C60.222645,57.223351 61.788532,56.744038 63.629700,56.091095 
z"/>
<path fill="#E8E7EC" opacity="1.000000" stroke="none" 
	d="
M54.005390,168.996567 
	C51.596413,169.661148 49.187435,170.325729 46.348892,170.704880 
	C45.578949,169.932495 45.238575,169.445557 44.898201,168.958618 
	C45.119915,168.553238 45.341625,168.147858 45.957741,167.368866 
	C49.287235,164.394608 51.609100,166.457382 54.004852,168.249725 
	C54.010456,168.498642 54.005390,168.996567 54.005390,168.996567 
z"/>
<path fill="#DBDADE" opacity="1.000000" stroke="none" 
	d="
M53.999256,168.000824 
	C51.609100,166.457382 49.287235,164.394608 46.051643,167.033234 
	C46.658665,164.326736 47.625225,161.683578 51.902466,164.149658 
	C52.800694,164.607178 53.161591,164.715073 53.522484,164.822968 
	C53.522484,164.822968 53.609821,164.738678 53.660049,164.771652 
	C54.176922,164.894058 54.643566,164.983475 55.505669,165.321106 
	C55.901127,165.569305 55.972099,166.041672 55.906662,166.340057 
	C55.227234,167.092560 54.613247,167.546692 53.999256,168.000824 
z"/>
<path fill="#D2D1D6" opacity="1.000000" stroke="none" 
	d="
M35.313953,92.066833 
	C33.846321,92.926735 32.378685,93.786629 30.528124,94.625702 
	C30.976330,92.892265 31.807461,91.179634 32.858856,89.233765 
	C33.590885,89.222366 34.102646,89.444206 34.913979,90.126892 
	C35.247013,91.080772 35.280483,91.573799 35.313953,92.066833 
z"/>
<path fill="#DFDEE1" opacity="1.000000" stroke="none" 
	d="
M39.990395,77.002106 
	C39.701687,77.556473 39.412979,78.110847 38.982620,78.943970 
	C35.819435,77.066261 37.377228,74.977036 39.175331,72.656952 
	C39.416702,72.426109 39.746975,72.739075 39.846344,73.205933 
	C39.960606,74.782562 39.975498,75.892334 39.990395,77.002106 
z"/>
<path fill="#DBDADE" opacity="1.000000" stroke="none" 
	d="
M44.562233,168.958694 
	C45.238575,169.445557 45.578949,169.932495 45.971371,170.722809 
	C46.023415,171.026199 45.996937,171.504013 45.597824,171.750580 
	C44.415245,172.023254 43.631783,172.049362 42.848320,172.075455 
	C42.848320,172.075455 42.912838,172.038513 42.941269,171.763947 
	C42.966602,171.282867 42.963512,171.076324 42.960419,170.869797 
	C43.382370,170.232788 43.804321,169.595779 44.562233,168.958694 
z"/>
<path fill="#E8E7EC" opacity="1.000000" stroke="none" 
	d="
M42.806644,172.350555 
	C43.631783,172.049362 44.415245,172.023254 45.589844,171.989716 
	C45.222927,172.954987 44.464878,173.927689 43.406937,174.985992 
	C42.836727,174.781174 42.566402,174.490768 42.035370,174.056290 
	C42.104763,173.483368 42.434864,173.054504 42.806644,172.350555 
z"/>
<path fill="#D2D1D6" opacity="1.000000" stroke="none" 
	d="
M33.195709,84.136223 
	C33.308323,85.171684 33.259365,86.452454 32.912521,87.918915 
	C32.754463,86.863586 32.894299,85.622551 33.195709,84.136223 
z"/>
<path fill="#CFCED3" opacity="1.000000" stroke="none" 
	d="
M53.330261,164.594910 
	C53.161591,164.715073 52.800694,164.607178 52.226334,164.311417 
	C52.387928,164.204651 52.762981,164.285767 53.330261,164.594910 
z"/>
<path fill="#E8E7EC" opacity="1.000000" stroke="none" 
	d="
M42.720688,170.967346 
	C42.963512,171.076324 42.966602,171.282867 42.951424,171.799713 
	C42.782417,171.761658 42.631683,171.413284 42.720688,170.967346 
z"/>
<path fill="#464647" opacity="1.000000" stroke="none" 
	d="
M29.187551,99.977554 
	C29.398737,99.959915 29.729366,100.183517 30.042679,100.708618 
	C29.785906,100.746346 29.546452,100.482574 29.187551,99.977554 
z"/>
<path fill="#D2D1D7" opacity="1.000000" stroke="none" 
	d="
M105.514114,52.532257 
	C105.478249,52.550705 105.549988,52.513809 105.514114,52.532257 
z"/>
<path fill="#FAF7F6" opacity="1.000000" stroke="none" 
	d="
M38.265911,218.777649 
	C38.229515,219.582672 38.183182,220.377762 37.937485,221.745636 
	C38.178009,222.858978 38.617905,223.399551 39.057800,223.940125 
	C39.057800,223.940125 39.012737,223.958649 39.016064,224.415924 
	C39.036503,227.607574 39.053616,230.341919 39.070732,233.076279 
	C38.250824,233.967957 37.430916,234.859619 35.962051,235.899689 
	C33.807495,236.433701 32.301891,236.819275 30.423126,237.181000 
	C27.243113,236.302292 24.436264,235.447464 21.629414,234.592636 
	C21.629414,234.592636 21.467829,234.527756 21.549740,234.098663 
	C20.706223,232.813461 19.780798,231.957367 18.855373,231.101257 
	C16.325607,226.001328 13.795843,220.901382 11.609068,215.487305 
	C13.577347,215.129837 15.202635,215.086517 16.899525,215.412491 
	C18.313545,218.525879 19.655964,221.270004 21.136738,224.307144 
	C22.167974,225.095810 23.060854,225.591446 23.928795,226.067383 
	C23.903854,226.047684 23.894136,226.110504 23.945578,226.482269 
	C27.854698,228.647156 31.300446,227.566208 31.723248,223.718826 
	C32.034523,220.886276 30.673367,217.869965 30.039537,214.965393 
	C30.021627,214.995255 30.090832,214.987488 30.090691,214.668823 
	C29.746342,213.845383 29.402134,213.340607 29.030771,212.548981 
	C28.974569,211.181061 28.945520,210.100006 29.166969,209.099777 
	C29.939568,208.740250 30.461670,208.299911 30.983772,207.859558 
	C32.539230,210.053696 34.094685,212.247849 35.806465,214.931503 
	C36.718884,216.532455 37.474979,217.643890 38.231071,218.755341 
	C38.231068,218.755341 38.255974,218.767715 38.265911,218.777649 
z"/>
<path fill="#F6E8E6" opacity="1.000000" stroke="none" 
	d="
M16.827921,215.043213 
	C15.202635,215.086517 13.577347,215.129837 11.645187,215.115265 
	C11.223688,210.740952 10.315586,206.247864 11.225748,202.159576 
	C12.073954,198.349609 15.858222,196.448059 19.949551,197.244766 
	C24.344198,198.100525 27.973011,200.271484 29.327948,205.013397 
	C29.578360,205.889771 30.011421,206.713943 30.671976,207.710876 
	C30.461670,208.299911 29.939568,208.740250 28.795538,209.117554 
	C25.476381,209.395432 22.779154,209.736374 19.825726,210.232727 
	C18.228533,210.944244 16.887539,211.500351 14.952769,212.302689 
	C15.182734,212.638779 16.005325,213.840988 16.827921,215.043213 
z"/>
<path fill="#CCCBD1" opacity="1.000000" stroke="none" 
	d="
M21.743080,234.848145 
	C24.436264,235.447464 27.243113,236.302292 30.478039,237.485687 
	C30.960352,238.438995 31.014585,239.063736 31.068819,239.688492 
	C30.296227,239.772049 29.523636,239.855621 28.375664,240.043564 
	C26.889370,239.423462 25.778458,238.699005 24.385742,237.790039 
	C23.354874,236.771576 22.605808,235.937622 21.743080,234.848145 
z"/>
<path fill="#CCCBD1" opacity="1.000000" stroke="none" 
	d="
M38.188599,218.430573 
	C37.474979,217.643890 36.718884,216.532455 36.079117,215.127075 
	C36.845669,215.924042 37.495895,217.014923 38.188599,218.430573 
z"/>
<path fill="#CCCBD1" opacity="1.000000" stroke="none" 
	d="
M18.913090,231.413300 
	C19.780798,231.957367 20.706223,232.813461 21.524075,234.015472 
	C20.601269,233.482712 19.786037,232.604034 18.913090,231.413300 
z"/>
<path fill="#E3E2E7" opacity="1.000000" stroke="none" 
	d="
M78.809715,171.295715 
	C88.489517,172.861710 98.143005,174.637054 107.866013,175.859451 
	C110.598557,176.203003 113.535294,174.922394 117.043793,174.279816 
	C119.147667,174.778915 120.586113,175.384964 122.024567,175.991028 
	C122.962540,176.598694 123.900505,177.206345 125.220695,178.061630 
	C119.063042,181.316910 113.017563,181.417618 106.793533,180.492737 
	C104.522514,180.155258 102.202553,180.147125 99.136856,179.972992 
	C97.943192,179.949356 97.517586,179.941452 96.998993,179.566803 
	C95.901787,178.491089 94.987877,177.412369 93.876793,177.140991 
	C90.218933,176.247635 86.408127,175.911819 82.825745,174.810104 
	C81.273605,174.332748 80.135750,172.508286 78.809715,171.295715 
z"/>
<path fill="#DFDEE1" opacity="1.000000" stroke="none" 
	d="
M121.966202,175.653931 
	C120.586113,175.384964 119.147667,174.778915 117.380066,174.092346 
	C116.719063,173.223679 116.387215,172.435501 116.273445,171.326721 
	C116.491524,171.006088 116.975685,171.011169 116.975685,171.011169 
	C118.839378,171.310913 120.936951,173.189484 122.223473,169.871338 
	C122.436340,169.322357 124.617966,169.490097 125.894981,169.413757 
	C127.114510,169.340866 128.340851,169.381653 129.781754,169.193787 
	C129.999313,169.015106 130.002701,168.997849 130.120880,169.228134 
	C130.499878,169.694031 130.760696,169.929642 131.021515,170.165253 
	C131.021515,170.165253 131.035522,170.630203 131.095367,171.082230 
	C131.778961,171.353073 132.402695,171.171906 133.026428,170.990723 
	C133.026428,170.990723 132.998337,170.999680 133.223190,170.873962 
	C133.703781,170.493317 133.959518,170.238373 134.215256,169.983429 
	C136.053406,169.950836 137.891556,169.918228 140.055756,170.039154 
	C137.338089,171.551910 134.294342,172.911148 131.067123,174.611588 
	C129.824158,175.408096 128.764664,175.863388 127.367538,176.427170 
	C125.322548,176.129364 123.615189,175.723099 121.966202,175.653931 
z"/>
<path fill="#D5D4DC" opacity="1.000000" stroke="none" 
	d="
M97.091980,179.933563 
	C97.517586,179.941452 97.943192,179.949356 98.687302,179.979553 
	C101.898659,181.005630 104.799835,181.986389 107.678963,183.028107 
	C108.476250,183.316605 109.207962,183.786362 110.029160,184.565857 
	C105.915840,184.459885 101.743118,183.960999 97.284866,182.835251 
	C97.030212,181.450119 97.061096,180.691833 97.091980,179.933563 
z"/>
<path fill="#F2DFE2" opacity="1.000000" stroke="none" 
	d="
M122.628540,202.139435 
	C120.785637,204.487335 118.926575,207.386536 114.858498,206.539215 
	C117.189926,204.881516 119.719925,203.470673 122.628540,202.139435 
z"/>
<path fill="#F2DFE2" opacity="1.000000" stroke="none" 
	d="
M114.079384,206.654114 
	C114.567589,207.662674 114.792175,208.816071 114.799706,210.578705 
	C114.343437,211.468185 114.104225,211.748459 113.865005,212.028717 
	C112.999084,211.213181 112.133171,210.397629 111.141304,209.293762 
	C111.948822,208.269943 112.882286,207.534470 114.079384,206.654114 
z"/>
<path fill="#FCFCFC" opacity="1.000000" stroke="none" 
	d="
M132.698059,170.990005 
	C132.402695,171.171906 131.778961,171.353073 131.109818,171.314346 
	C131.499496,171.059372 131.934586,171.024323 132.698059,170.990005 
z"/>
<path fill="#FCFCFC" opacity="1.000000" stroke="none" 
	d="
M130.906555,169.922501 
	C130.760696,169.929642 130.499878,169.694031 130.112854,169.227066 
	C130.254974,169.223724 130.523285,169.451736 130.906555,169.922501 
z"/>
<path fill="#FCFCFC" opacity="1.000000" stroke="none" 
	d="
M133.958984,170.091675 
	C133.959518,170.238373 133.703781,170.493317 133.215210,170.886353 
	C133.222504,170.749603 133.462616,170.474762 133.958984,170.091675 
z"/>
<path fill="#E8E8EB" opacity="1.000000" stroke="none" 
	d="
M39.427799,232.949707 
	C39.053616,230.341919 39.036503,227.607574 39.039169,224.418488 
	C42.055573,226.691177 41.731274,229.690704 39.427799,232.949707 
z"/>
<path fill="#E8E8EB" opacity="1.000000" stroke="none" 
	d="
M31.379280,239.730682 
	C31.014585,239.063736 30.960352,238.438995 30.851204,237.509552 
	C32.301891,236.819275 33.807495,236.433701 35.701134,236.061935 
	C35.105999,237.072906 34.122826,238.070053 33.036270,239.363724 
	C32.518509,239.697784 32.104122,239.735321 31.379280,239.730682 
z"/>
<path fill="#E8E8EB" opacity="1.000000" stroke="none" 
	d="
M39.027073,223.661713 
	C38.617905,223.399551 38.178009,222.858978 37.952595,222.144592 
	C38.443497,222.441650 38.719925,222.912476 39.027073,223.661713 
z"/>
<path fill="#C9C8D1" opacity="1.000000" stroke="none" 
	d="
M96.998993,179.566803 
	C97.061096,180.691833 97.030212,181.450119 97.000275,182.585999 
	C96.260468,182.961700 95.519714,182.959793 94.372879,182.585159 
	C92.504303,178.868790 90.826736,179.058823 88.987228,181.909363 
	C88.538094,181.930435 88.088966,181.951508 87.304176,182.011307 
	C86.968521,182.050034 86.498497,181.984421 86.240295,181.577484 
	C85.263344,180.179703 84.712296,178.543228 83.797874,178.305740 
	C78.896149,177.032562 73.903885,176.108002 68.551346,175.053040 
	C65.764977,174.373627 63.370159,173.704193 60.975342,173.034760 
	C60.975346,173.034760 61.000755,173.005875 60.849144,172.717438 
	C59.467934,171.604919 58.238338,170.780838 57.004204,169.602615 
	C56.657139,168.179535 56.314621,167.110611 55.972099,166.041672 
	C55.972099,166.041672 55.901127,165.569305 55.862068,165.334534 
	C56.941097,165.066483 58.059185,165.033188 59.588566,164.999268 
	C59.999855,164.998642 60.006073,164.990295 60.057388,165.330200 
	C61.432720,166.764374 62.756737,167.858658 64.362045,169.081635 
	C65.421852,169.453384 66.200371,169.696411 67.171692,170.167084 
	C67.913757,170.595291 68.463020,170.795853 69.278732,171.222504 
	C70.695488,171.623947 71.845795,171.799332 73.315582,171.998901 
	C74.404930,171.767487 75.174789,171.511902 75.944656,171.256317 
	C76.664124,171.237488 77.383598,171.218628 78.456390,171.247742 
	C80.135750,172.508286 81.273605,174.332748 82.825745,174.810104 
	C86.408127,175.911819 90.218933,176.247635 93.876793,177.140991 
	C94.987877,177.412369 95.901787,178.491089 96.998993,179.566803 
z"/>
<path fill="#D5D4DC" opacity="1.000000" stroke="none" 
	d="
M68.942902,175.062988 
	C73.903885,176.108002 78.896149,177.032562 83.797874,178.305740 
	C84.712296,178.543228 85.263344,180.179703 86.005066,181.546219 
	C85.578003,181.960068 85.127945,181.998260 84.077789,181.787918 
	C79.976089,180.703445 76.474510,179.867508 72.972931,179.031555 
	C72.972931,179.031555 72.504723,178.983749 72.180542,178.654877 
	C70.885208,177.238327 69.914055,176.150650 68.942902,175.062988 
z"/>
<path fill="#E8E7EC" opacity="1.000000" stroke="none" 
	d="
M68.551346,175.053024 
	C69.914055,176.150650 70.885208,177.238327 71.945740,178.639160 
	C67.468956,179.133896 63.524727,178.014404 61.035931,173.379120 
	C63.370159,173.704193 65.764977,174.373627 68.551346,175.053024 
z"/>
<path fill="#E8E7EC" opacity="1.000000" stroke="none" 
	d="
M73.082932,179.370911 
	C76.474510,179.867508 79.976089,180.703445 83.739197,181.794708 
	C80.398117,181.270126 76.795525,180.490189 73.082932,179.370911 
z"/>
<path fill="#E8E7EC" opacity="1.000000" stroke="none" 
	d="
M57.008743,169.956757 
	C58.238338,170.780838 59.467934,171.604919 60.834824,172.727478 
	C59.035091,172.256241 57.098064,171.486526 55.407745,170.360764 
	C56.105881,169.988739 56.557308,169.972748 57.008743,169.956757 
z"/>
<path fill="#CFCED3" opacity="1.000000" stroke="none" 
	d="
M57.004200,169.602615 
	C56.557308,169.972748 56.105881,169.988739 55.315575,170.017197 
	C54.832264,169.739914 54.637707,169.489029 54.199203,169.136810 
	C54.005390,168.996567 54.010456,168.498642 54.004860,168.249741 
	C54.613247,167.546692 55.227234,167.092560 55.906662,166.340057 
	C56.314621,167.110611 56.657139,168.179535 57.004200,169.602615 
z"/>
<path fill="#FB9FA0" opacity="1.000000" stroke="none" 
	d="
M124.707527,218.733139 
	C124.784546,219.945068 124.582199,221.003952 124.208023,222.329132 
	C123.057175,223.844147 122.078163,225.092896 120.662613,226.675720 
	C119.186073,227.436493 118.101868,227.779938 117.113861,228.304565 
	C113.263458,230.349091 110.935410,229.192917 110.392723,225.011475 
	C113.464928,224.580734 117.013878,226.357773 118.380035,221.935806 
	C119.474525,219.268936 120.246078,216.696777 121.017624,214.124634 
	C122.154465,215.609787 123.291313,217.094955 124.707527,218.733139 
z"/>
<path fill="#F9AFAD" opacity="1.000000" stroke="none" 
	d="
M120.638733,214.078003 
	C120.246078,216.696777 119.474525,219.268936 118.132576,221.691711 
	C116.135094,217.405838 113.042557,220.453537 110.769211,219.967575 
	C111.823776,217.572876 112.878342,215.178177 113.898956,212.406097 
	C114.104225,211.748459 114.343437,211.468185 114.803406,211.019760 
	C116.769386,211.911514 118.514610,212.971436 120.638733,214.078003 
z"/>
<path fill="#F8B7B6" opacity="1.000000" stroke="none" 
	d="
M110.540497,220.181458 
	C113.042557,220.453537 116.135094,217.405838 117.809631,221.786438 
	C117.013878,226.357773 113.464928,224.580734 110.187576,224.867035 
	C109.360939,224.462921 109.165077,224.193741 108.969215,223.924561 
	C109.416748,222.748154 109.864273,221.571732 110.540497,220.181458 
z"/>
<path fill="#E2989B" opacity="1.000000" stroke="none" 
	d="
M108.698639,224.165527 
	C109.165077,224.193741 109.360939,224.462921 109.761955,224.876556 
	C110.935410,229.192917 113.263458,230.349091 117.113861,228.304565 
	C118.101868,227.779938 119.186073,227.436493 120.582413,227.004715 
	C119.777946,228.096573 118.792633,229.665909 117.414513,230.177902 
	C115.431358,230.914673 112.358704,231.873276 111.208580,230.940353 
	C109.584007,229.622574 109.290550,226.663788 108.698639,224.165527 
z"/>
<path fill="#F2DFE2" opacity="1.000000" stroke="none" 
	d="
M123.098602,208.089111 
	C122.182228,208.039444 121.463577,207.774658 120.744926,207.509888 
	C121.145584,207.092560 121.546249,206.675247 121.946915,206.257919 
	C122.396721,206.796616 122.846519,207.335312 123.098602,208.089111 
z"/>
<path fill="#F2DFE2" opacity="1.000000" stroke="none" 
	d="
M120.959579,211.485794 
	C120.834160,211.169510 120.906387,210.856186 120.978622,210.542877 
	C121.038162,210.858170 121.097694,211.173477 120.959579,211.485794 
z"/>
<path fill="#D5D4DC" opacity="1.000000" stroke="none" 
	d="
M89.260376,182.169830 
	C90.826736,179.058823 92.504303,178.868790 94.002640,182.574738 
	C92.536827,182.768127 91.035179,182.599213 89.260376,182.169830 
z"/>
<path fill="#FDDFDF" opacity="1.000000" stroke="none" 
	d="
M112.996445,137.004257 
	C115.207558,139.151276 117.418678,141.298309 119.945488,144.039185 
	C120.858414,146.091217 121.455650,147.549423 122.052887,149.007614 
	C122.047432,149.443985 122.041985,149.880356 121.882401,150.975266 
	C119.808990,154.741470 117.889702,157.849136 115.970413,160.956802 
	C108.644951,158.975784 102.784554,155.238876 100.034317,146.954926 
	C100.314659,144.134720 100.651123,142.066666 100.987587,139.998627 
	C101.244141,136.063965 104.404778,135.790970 107.701904,135.392609 
	C109.796707,136.147552 111.396576,136.575897 112.996445,137.004257 
M105.754051,152.630219 
	C108.031937,153.704163 110.533234,155.935150 112.529312,155.549713 
	C114.855789,155.100494 118.620857,152.121094 118.433609,150.668625 
	C118.017090,147.437622 115.994980,144.030334 113.682785,141.589706 
	C112.537666,140.380981 108.990578,140.390533 107.073997,141.175888 
	C102.097145,143.215286 101.927979,145.368286 105.754051,152.630219 
z"/>
<path fill="#FBD5D5" opacity="1.000000" stroke="none" 
	d="
M43.130051,101.289536 
	C43.570049,98.118027 44.155342,95.270020 44.902039,92.162445 
	C48.791653,92.224144 52.519859,92.545425 56.686607,93.242966 
	C57.757515,94.068062 58.389881,94.516891 59.022247,94.965721 
	C59.051918,95.393829 59.081589,95.821930 58.740005,96.595116 
	C57.727791,96.808464 56.961884,96.857018 56.467216,96.514191 
	C54.177483,94.927277 52.032207,92.494553 49.516857,96.251495 
	C47.263603,99.616966 46.182262,102.710976 50.721382,105.173157 
	C51.548653,105.621895 52.032791,106.927460 52.849552,107.128021 
	C55.036449,107.665039 57.966476,108.793503 59.383198,107.852715 
	C60.860844,106.871475 61.268497,103.780136 61.468807,101.550667 
	C61.600933,100.080101 60.540337,98.502380 60.013786,96.972633 
	C60.448364,96.979828 60.882938,96.987030 61.706345,97.338211 
	C63.065430,98.452309 64.035683,99.222420 65.005936,99.992523 
	C65.005936,99.992523 65.000000,100.000000 65.000023,100.395538 
	C65.008698,101.852951 65.017349,102.914825 65.015770,104.359207 
	C63.332283,107.486305 61.659027,110.230904 59.610107,112.979614 
	C58.482883,113.001411 57.731323,113.019096 56.979759,113.036774 
	C50.909813,111.030502 45.798180,107.874588 43.130051,101.289536 
z"/>
<path fill="#CC4344" opacity="1.000000" stroke="none" 
	d="
M72.990112,124.024643 
	C75.234627,121.426849 77.479156,118.829056 79.905228,116.858536 
	C81.031219,118.281822 82.278748,119.944954 82.872421,119.737442 
	C87.884453,117.985550 89.765305,120.476547 90.993942,124.810341 
	C91.422844,126.323204 93.037392,127.499939 94.041458,129.159912 
	C93.318733,130.310135 92.665031,131.130615 91.845474,131.692398 
	C89.734894,130.821365 87.779144,130.241714 85.847679,129.590088 
	C81.514343,128.128128 77.193077,126.630402 72.866890,125.147240 
	C72.866890,125.147240 72.919731,125.095154 72.930832,124.830727 
	C72.958000,124.385757 72.974052,124.205208 72.990112,124.024643 
z"/>
<path fill="#EA6C6D" opacity="1.000000" stroke="none" 
	d="
M68.859505,134.871323 
	C69.149414,133.778915 69.439323,132.686523 70.085983,131.149384 
	C70.670677,130.480026 70.845009,130.219543 70.965759,129.923203 
	C70.965759,129.923203 70.891586,129.983383 71.209183,130.013412 
	C71.993149,130.096085 72.459511,130.148743 73.031197,130.511597 
	C77.493828,133.897293 81.851143,136.972794 86.170189,140.452774 
	C86.077347,141.397919 86.022766,141.938568 85.967331,142.731537 
	C85.987610,143.312866 86.008751,143.641861 86.029900,143.970856 
	C86.029900,143.970856 85.967659,143.971207 85.690628,143.978729 
	C85.127190,144.359924 84.840797,144.733612 84.554398,145.107315 
	C84.554405,145.107315 84.267273,145.174942 83.732178,145.023483 
	C78.743347,144.953369 74.289612,145.034729 69.835884,145.116074 
	C69.835884,145.116074 69.919716,145.089310 69.879944,144.754059 
	C69.513283,141.236298 69.186394,138.053818 68.859505,134.871323 
M77.070213,141.944443 
	C77.837662,140.963806 78.605103,139.983170 79.372543,139.002518 
	C78.176437,138.346298 77.003685,137.249908 75.776230,137.184799 
	C74.923279,137.139557 73.995125,138.512100 73.100563,139.251236 
	C74.162025,140.161697 75.223480,141.072174 77.070213,141.944443 
z"/>
<path fill="#FEC6C4" opacity="1.000000" stroke="none" 
	d="
M59.793678,96.950882 
	C60.540337,98.502380 61.600933,100.080101 61.468807,101.550667 
	C61.268497,103.780136 60.860844,106.871475 59.383198,107.852715 
	C57.966476,108.793503 55.036449,107.665039 52.849552,107.128021 
	C52.032791,106.927460 51.548653,105.621895 50.721382,105.173157 
	C46.182262,102.710976 47.263603,99.616966 49.516857,96.251495 
	C52.032207,92.494553 54.177483,94.927277 56.467216,96.514191 
	C56.961884,96.857018 57.727791,96.808464 58.750710,96.916794 
	C59.132664,96.893402 59.573574,96.929138 59.793678,96.950882 
z"/>
<path fill="#3B3B3B" opacity="1.000000" stroke="none" 
	d="
M73.609718,89.350876 
	C74.513306,92.191772 75.184669,94.746330 75.856033,97.300880 
	C70.891586,89.409195 64.632858,83.385818 54.369843,82.923630 
	C60.641163,80.580711 65.833809,81.337433 70.080193,86.216911 
	C71.023911,87.301331 72.270409,88.122269 73.609718,89.350876 
z"/>
<path fill="#CB3637" opacity="1.000000" stroke="none" 
	d="
M72.925880,130.201401 
	C72.459511,130.148743 71.993149,130.096085 71.179535,129.975967 
	C71.431343,128.512985 72.030388,127.117477 72.748169,125.434601 
	C77.193077,126.630402 81.514343,128.128128 85.847679,129.590088 
	C87.779144,130.241714 89.734894,130.821365 91.592026,131.905060 
	C90.378845,133.962738 89.253258,135.549011 87.820343,136.954895 
	C82.650642,134.583466 77.788261,132.392441 72.925880,130.201401 
z"/>
<path fill="#EFEFF2" opacity="1.000000" stroke="none" 
	d="
M44.862312,144.830597 
	C39.391354,142.008469 38.157013,136.040619 36.156467,130.896103 
	C34.055439,125.493156 33.395130,119.529953 32.297165,113.290680 
	C32.982906,112.515129 33.476707,112.260483 33.970505,112.005836 
	C34.370533,113.909607 34.936268,115.795670 35.141834,117.720215 
	C36.021114,125.952271 39.001526,133.363983 43.479618,140.268784 
	C44.254971,141.464279 44.445881,143.038803 44.862312,144.830597 
z"/>
<path fill="#846A69" opacity="1.000000" stroke="none" 
	d="
M94.110474,128.830170 
	C93.037392,127.499939 91.422844,126.323204 90.993942,124.810341 
	C89.765305,120.476547 87.884453,117.985550 82.872421,119.737442 
	C82.278748,119.944954 81.031219,118.281822 80.080078,117.130409 
	C83.914818,116.632698 87.756248,116.490410 91.890434,116.337273 
	C91.881210,116.178169 92.090561,117.150780 91.966499,118.078827 
	C91.174934,124.000099 92.485367,125.739304 98.469658,126.093452 
	C100.767487,126.229431 102.121780,126.333084 98.911499,128.642395 
	C98.238411,128.926224 98.063667,128.924484 97.784409,128.804169 
	C97.333931,128.606461 97.143684,128.776123 97.153625,129.213776 
	C97.198112,129.232941 97.182732,129.328583 96.807472,129.220444 
	C95.658302,129.018265 94.884384,128.924210 94.110474,128.830170 
z"/>
<path fill="#2E2C31" opacity="1.000000" stroke="none" 
	d="
M123.613571,135.376404 
	C123.250412,134.973373 122.887253,134.570343 122.212570,133.848785 
	C121.901047,133.530258 121.714127,133.088333 121.987152,132.925613 
	C122.532875,132.441727 122.805557,132.120544 123.078247,131.799377 
	C129.318222,136.176910 130.914932,139.954803 128.779129,146.708191 
	C127.904137,147.078812 127.454193,147.034851 127.004250,146.990875 
	C126.987427,146.552765 126.970604,146.114670 126.943298,144.955063 
	C125.826393,141.281174 124.719978,138.328796 123.613571,135.376404 
z"/>
<path fill="#824A4D" opacity="1.000000" stroke="none" 
	d="
M94.041458,129.159912 
	C94.884384,128.924210 95.658302,129.018265 96.642593,129.506317 
	C95.356560,132.301773 93.860146,134.703217 92.363739,137.104645 
	C91.656837,137.870834 90.949936,138.637024 89.783257,139.704346 
	C88.883682,140.028458 88.443893,140.051437 88.005600,139.704941 
	C88.047279,138.602081 88.087471,137.868683 88.127663,137.135300 
	C89.253258,135.549011 90.378845,133.962738 91.757881,132.163788 
	C92.665031,131.130615 93.318733,130.310135 94.041458,129.159912 
z"/>
<path fill="#FDECED" opacity="1.000000" stroke="none" 
	d="
M116.368912,160.969971 
	C117.889702,157.849136 119.808990,154.741470 121.884369,151.302582 
	C122.040474,150.971344 122.526604,150.983780 122.804199,151.278046 
	C123.384636,152.048065 123.687469,152.523819 123.990311,152.999573 
	C123.258186,157.176636 122.264374,161.116928 116.368912,160.969971 
z"/>
<path fill="#EFEFF2" opacity="1.000000" stroke="none" 
	d="
M50.902237,154.081360 
	C48.847363,151.588577 46.792480,149.095795 44.857979,146.308197 
	C50.346836,145.486343 49.896061,150.591827 51.717842,153.635681 
	C51.272278,154.044357 51.087257,154.062851 50.902237,154.081360 
z"/>
<path fill="#FDECED" opacity="1.000000" stroke="none" 
	d="
M65.026001,103.976700 
	C65.017349,102.914825 65.008698,101.852951 65.003937,100.392723 
	C70.273445,103.699852 70.607399,109.358696 65.386177,112.981857 
	C64.999123,112.999336 64.983299,112.983131 65.003647,112.603302 
	C64.758247,109.474487 69.873886,106.726799 65.026001,103.976700 
z"/>
<path fill="#E6E6E8" opacity="1.000000" stroke="none" 
	d="
M66.978889,169.939438 
	C66.200371,169.696411 65.421852,169.453384 64.297134,168.779053 
	C63.633335,167.589111 63.315727,166.830475 63.185192,165.845825 
	C63.911255,165.416351 64.450241,165.212906 64.989227,165.009460 
	C66.130135,165.578430 67.271042,166.147415 68.882065,167.146606 
	C70.566597,168.052399 71.781006,168.527969 72.995415,169.003540 
	C72.995415,169.003555 72.993393,169.031281 72.995377,169.408340 
	C72.996941,170.515167 72.996521,171.244934 72.996101,171.974701 
	C71.845795,171.799332 70.695488,171.623947 69.228561,170.956879 
	C68.267593,170.289932 67.623238,170.114685 66.978889,169.939438 
z"/>
<path fill="#E6E6E8" opacity="1.000000" stroke="none" 
	d="
M50.975887,154.414764 
	C51.087257,154.062851 51.272278,154.044357 51.735710,154.006424 
	C54.193157,155.494598 56.372192,157.002228 58.770958,159.159454 
	C58.994400,160.871384 58.998116,161.933731 59.001831,162.996063 
	C56.351067,160.246765 53.700302,157.497467 50.975887,154.414764 
z"/>
<path fill="#714E4D" opacity="1.000000" stroke="none" 
	d="
M69.699806,145.502258 
	C74.289612,145.034729 78.743347,144.953369 83.621346,144.926163 
	C79.277687,149.140213 74.868347,149.416718 69.699806,145.502258 
z"/>
<path fill="#EFEFF2" opacity="1.000000" stroke="none" 
	d="
M59.121593,163.248993 
	C58.998116,161.933731 58.994400,160.871384 58.989059,159.411011 
	C60.563267,161.243622 65.219215,159.945328 64.987610,164.629059 
	C64.450241,165.212906 63.911255,165.416351 62.894897,165.705551 
	C61.613712,165.524307 60.809891,165.257294 60.006073,164.990295 
	C60.006073,164.990295 59.999855,164.998642 60.003998,164.996063 
	C59.752548,164.496292 59.496956,163.999100 59.121593,163.248993 
z"/>
<path fill="#3B3B3B" opacity="1.000000" stroke="none" 
	d="
M123.077377,131.443359 
	C122.805557,132.120544 122.532875,132.441727 121.676270,132.829529 
	C119.732330,132.258560 118.372314,131.620956 117.012299,130.983337 
	C117.012299,130.983337 117.000610,131.000610 116.834061,130.719635 
	C116.127457,129.341446 115.587410,128.244263 115.047363,127.147064 
	C117.723740,128.460480 120.400124,129.773911 123.077377,131.443359 
z"/>
<path fill="#E0D8D8" opacity="1.000000" stroke="none" 
	d="
M92.706741,137.084167 
	C93.860146,134.703217 95.356560,132.301773 97.017853,129.614471 
	C97.182732,129.328583 97.198112,129.232941 97.359375,129.175842 
	C97.520630,129.118759 97.888931,128.922760 97.888931,128.922760 
	C98.063667,128.924484 98.238411,128.926224 98.675003,128.918137 
	C96.974487,131.626770 95.012123,134.345215 92.706741,137.084167 
z"/>
<path fill="#EAE8EA" opacity="1.000000" stroke="none" 
	d="
M33.978851,111.576202 
	C33.476707,112.260483 32.982906,112.515129 32.235817,112.886200 
	C31.688169,110.245682 29.206451,107.095154 33.760139,105.179688 
	C34.078331,107.191704 34.032764,109.169136 33.978851,111.576202 
z"/>
<path fill="#DFDEE1" opacity="1.000000" stroke="none" 
	d="
M123.483269,135.766113 
	C124.719978,138.328796 125.826393,141.281174 126.870453,144.634216 
	C125.656387,142.075165 124.504677,139.115494 123.483269,135.766113 
z"/>
<path fill="#F5F5F7" opacity="1.000000" stroke="none" 
	d="
M40.278374,76.846497 
	C39.975498,75.892334 39.960606,74.782562 40.005379,73.368607 
	C41.466423,72.403976 42.867802,71.743530 44.596966,71.021927 
	C43.471951,72.870804 42.019154,74.780846 40.278374,76.846497 
z"/>
<path fill="#714E4D" opacity="1.000000" stroke="none" 
	d="
M68.481033,134.894562 
	C69.186394,138.053818 69.513283,141.236298 69.876266,144.797897 
	C65.373001,142.988037 64.851967,140.034454 68.481033,134.894562 
z"/>
<path fill="#DFDEE1" opacity="1.000000" stroke="none" 
	d="
M114.830566,126.911316 
	C115.587410,128.244263 116.127457,129.341446 116.842201,130.711899 
	C115.140816,130.267227 113.264732,129.549301 111.388649,128.831375 
	C111.397224,128.336929 111.405800,127.842476 111.414375,127.348030 
	C112.480843,127.123878 113.547302,126.899719 114.830566,126.911316 
z"/>
<path fill="#FDECED" opacity="1.000000" stroke="none" 
	d="
M57.107380,113.389793 
	C57.731323,113.019096 58.482883,113.001411 60.027313,112.987885 
	C62.207890,112.989075 63.595592,112.986099 64.983299,112.983124 
	C64.983299,112.983131 64.999123,112.999336 65.007652,113.008743 
	C62.708858,116.335075 60.012951,115.479424 57.107380,113.389793 
z"/>
<path fill="#FAF7F6" opacity="1.000000" stroke="none" 
	d="
M100.625748,140.070465 
	C100.651123,142.066666 100.314659,144.134720 99.964943,146.604263 
	C96.697884,144.565201 97.131195,142.292358 100.625748,140.070465 
z"/>
<path fill="#E0D8D8" opacity="1.000000" stroke="none" 
	d="
M88.004097,140.074417 
	C88.443893,140.051437 88.883682,140.028458 89.653336,139.989029 
	C88.901657,141.317184 87.820114,142.661789 86.384232,143.988617 
	C86.008751,143.641861 85.987610,143.312866 86.217628,142.509216 
	C87.001961,141.356949 87.535133,140.679321 88.034195,140.003937 
	C88.000076,140.006165 88.004097,140.074417 88.004097,140.074417 
z"/>
<path fill="#FAF7F6" opacity="1.000000" stroke="none" 
	d="
M122.354782,148.922607 
	C121.455650,147.549423 120.858414,146.091217 120.116837,144.327408 
	C123.275436,144.284805 124.216988,145.863983 122.354782,148.922607 
z"/>
<path fill="#FEC6C4" opacity="1.000000" stroke="none" 
	d="
M92.137627,111.119492 
	C92.577477,110.380203 93.017319,109.640923 93.457169,108.901634 
	C94.229790,109.734314 95.002411,110.567001 95.557938,111.709724 
	C94.273117,111.719666 93.205368,111.419579 92.137627,111.119492 
z"/>
<path fill="#FB9FA0" opacity="1.000000" stroke="none" 
	d="
M92.093552,111.485664 
	C93.205368,111.419579 94.273117,111.719666 95.679344,112.002235 
	C95.818314,112.652145 95.618790,113.319580 95.419266,113.987015 
	C94.295998,113.275291 93.172737,112.563560 92.093552,111.485664 
z"/>
<path fill="#FAF7F6" opacity="1.000000" stroke="none" 
	d="
M112.998802,136.753738 
	C111.396576,136.575897 109.796707,136.147552 108.073822,135.376770 
	C109.407806,135.254776 110.864807,135.475204 112.660904,135.847809 
	C113.000000,136.000000 113.002975,136.002151 113.002975,136.002151 
	C113.002373,136.169174 113.001762,136.336197 112.998802,136.753738 
z"/>
<path fill="#DFDEE1" opacity="1.000000" stroke="none" 
	d="
M117.083382,131.325165 
	C118.372314,131.620956 119.732330,132.258560 121.403236,132.992249 
	C121.714127,133.088333 121.901047,133.530258 121.954483,133.764160 
	C120.390106,133.221024 118.772285,132.444016 117.083382,131.325165 
z"/>
<path fill="#E3E2E7" opacity="1.000000" stroke="none" 
	d="
M73.315582,171.998886 
	C72.996521,171.244934 72.996941,170.515167 72.992081,169.421844 
	C73.941422,169.551956 74.896049,170.045639 75.897675,170.897812 
	C75.174789,171.511902 74.404930,171.767487 73.315582,171.998886 
z"/>
<path fill="#EAE8EA" opacity="1.000000" stroke="none" 
	d="
M36.343838,108.275436 
	C36.163532,107.479660 36.204105,106.861496 36.244675,106.243340 
	C36.798595,106.708054 37.352516,107.172760 37.906437,107.637474 
	C37.459194,107.909332 37.011955,108.181198 36.343838,108.275436 
z"/>
<path fill="#FDECED" opacity="1.000000" stroke="none" 
	d="
M64.952042,99.660423 
	C64.035683,99.222420 63.065430,98.452309 62.032021,97.354332 
	C62.945293,97.793747 63.921719,98.561035 64.952042,99.660423 
z"/>
<path fill="#DFDEE1" opacity="1.000000" stroke="none" 
	d="
M127.010651,147.298645 
	C127.454193,147.034851 127.904137,147.078812 128.689667,147.064728 
	C128.986343,147.771729 128.947418,148.536774 128.908493,149.301819 
	C128.278015,148.736679 127.647530,148.171555 127.010651,147.298645 
z"/>
<path fill="#EFEFF2" opacity="1.000000" stroke="none" 
	d="
M72.898140,168.663818 
	C71.781006,168.527969 70.566597,168.052399 69.178551,167.283783 
	C70.270233,167.435196 71.535553,167.879654 72.898140,168.663818 
z"/>
<path fill="#FDECED" opacity="1.000000" stroke="none" 
	d="
M58.950798,94.663757 
	C58.389881,94.516891 57.757515,94.068062 57.055916,93.314819 
	C57.617573,93.460869 58.248466,93.911331 58.950798,94.663757 
z"/>
<path fill="#FAF7F6" opacity="1.000000" stroke="none" 
	d="
M124.174011,152.811768 
	C123.687469,152.523819 123.384636,152.048065 123.047272,151.284027 
	C123.461067,151.538467 123.909393,152.081207 124.174011,152.811768 
z"/>
<path fill="#E0D8D8" opacity="1.000000" stroke="none" 
	d="
M84.798416,145.089676 
	C84.840797,144.733612 85.127190,144.359924 85.685959,144.009491 
	C85.653023,144.379196 85.347725,144.725616 84.798416,145.089676 
z"/>
<path fill="#FAF7F6" opacity="1.000000" stroke="none" 
	d="
M112.998901,135.998474 
	C112.997810,135.996948 113.202744,135.667297 113.202744,135.667297 
	C113.202744,135.667297 113.188110,135.912308 113.095543,135.957230 
	C113.002975,136.002151 113.000000,136.000000 112.998901,135.998474 
z"/>
<path fill="#E3E2E7" opacity="1.000000" stroke="none" 
	d="
M116.886673,170.865662 
	C116.975685,171.011169 116.491524,171.006088 116.249512,171.004013 
	C116.270889,170.908005 116.534279,170.814072 116.886673,170.865662 
z"/>
<path fill="#E8575A" opacity="1.000000" stroke="none" 
	d="
M70.685699,129.952728 
	C70.845009,130.219543 70.670677,130.480026 70.249359,130.840424 
	C70.172531,130.644882 70.289085,130.313568 70.685699,129.952728 
z"/>
<path fill="#CB3637" opacity="1.000000" stroke="none" 
	d="
M72.683014,124.031967 
	C72.974052,124.205208 72.958000,124.385757 72.893852,124.833664 
	C72.689148,124.747108 72.532524,124.393196 72.683014,124.031967 
z"/>
<path fill="#FAFAFB" opacity="1.000000" stroke="none" 
	d="
M171.692047,110.963318 
	C182.135101,116.733383 183.693970,123.134178 177.247803,133.765350 
	C175.319717,135.477905 173.775925,137.150726 171.939835,138.390701 
	C170.422348,139.415497 168.559448,139.928802 166.849594,140.668747 
	C166.353607,138.923141 165.434753,137.176483 165.439178,135.432144 
	C165.453720,129.691711 165.939621,123.952995 165.975845,118.211929 
	C166.000412,114.313690 165.868027,110.628448 171.692047,110.963318 
M177.542496,130.512772 
	C177.542496,130.512772 177.480881,130.542831 177.542496,130.512772 
z"/>
<path fill="#E8E8EB" opacity="1.000000" stroke="none" 
	d="
M154.292328,118.807800 
	C154.201111,118.369942 154.308990,117.726700 154.682007,117.028076 
	C154.795242,117.515930 154.643326,118.059174 154.292328,118.807800 
z"/>
<path fill="#E8E8EB" opacity="1.000000" stroke="none" 
	d="
M154.987106,114.667572 
	C154.783707,114.374474 154.586105,113.738922 154.646271,113.030518 
	C154.933670,113.413483 154.963303,113.869301 154.987106,114.667572 
z"/>
<path fill="#F5F5F7" opacity="1.000000" stroke="none" 
	d="
M35.310387,203.402374 
	C33.639252,199.489777 32.659199,196.065720 38.674244,194.064758 
	C39.875118,198.848907 41.018932,203.405731 42.162746,207.962555 
	C41.476311,208.278412 40.789875,208.594254 40.103443,208.910095 
	C38.570690,207.186020 37.037941,205.461929 35.310387,203.402374 
z"/>
<path fill="#FCFCFC" opacity="1.000000" stroke="none" 
	d="
M35.524582,92.294617 
	C35.280483,91.573799 35.247013,91.080772 35.178154,90.218094 
	C35.781059,88.745895 36.419350,87.643333 37.827019,85.211769 
	C39.969501,88.873978 41.561565,91.595345 43.153633,94.316711 
	C42.735268,94.762383 42.316906,95.208061 41.898544,95.653740 
	C39.844097,94.609962 37.789650,93.566185 35.524582,92.294617 
z"/>
<path fill="#FB9FA0" opacity="1.000000" stroke="none" 
	d="
M20.081924,210.077316 
	C22.779154,209.736374 25.476381,209.395432 28.545040,209.036713 
	C28.945520,210.100006 28.974569,211.181061 29.048923,212.865433 
	C29.426430,213.975006 29.758627,214.481247 30.090828,214.987488 
	C30.090832,214.987488 30.021627,214.995255 30.016815,215.419983 
	C29.976540,225.413727 29.976540,225.413727 23.894136,226.110504 
	C23.894136,226.110504 23.903854,226.047684 23.833244,225.797684 
	C23.509485,225.035431 23.256340,224.523193 23.181221,223.716522 
	C24.513086,222.576065 25.666924,221.729996 27.217922,220.592712 
	C26.163427,218.784485 25.293203,217.071350 24.215206,215.500824 
	C22.930490,213.629120 21.467615,211.879715 20.081924,210.077316 
z"/>
<path fill="#F8B7B6" opacity="1.000000" stroke="none" 
	d="
M19.825724,210.232727 
	C21.467615,211.879715 22.930490,213.629120 24.215206,215.500824 
	C25.293203,217.071350 26.163427,218.784485 27.217922,220.592712 
	C25.666924,221.729996 24.513086,222.576065 22.847029,223.710876 
	C21.889334,224.004456 21.443859,224.009293 20.998383,224.014130 
	C19.655964,221.270004 18.313545,218.525879 16.899523,215.412476 
	C16.005325,213.840988 15.182734,212.638779 14.952769,212.302689 
	C16.887539,211.500351 18.228533,210.944244 19.825724,210.232727 
z"/>
<path fill="#E2989B" opacity="1.000000" stroke="none" 
	d="
M23.945578,226.482269 
	C29.976540,225.413727 29.976540,225.413727 30.034725,215.390121 
	C30.673367,217.869965 32.034523,220.886276 31.723248,223.718826 
	C31.300446,227.566208 27.854698,228.647156 23.945578,226.482269 
z"/>
<path fill="#E2989B" opacity="1.000000" stroke="none" 
	d="
M21.136738,224.307159 
	C21.443859,224.009293 21.889334,224.004456 22.669003,224.005280 
	C23.256340,224.523193 23.509485,225.035431 23.858185,225.817383 
	C23.060854,225.591446 22.167974,225.095810 21.136738,224.307159 
z"/>
<path fill="#E2989B" opacity="1.000000" stroke="none" 
	d="
M30.090689,214.668823 
	C29.758627,214.481247 29.426430,213.975006 29.076077,213.152283 
	C29.402134,213.340607 29.746342,213.845383 30.090689,214.668823 
z"/>
<path fill="#CFCED3" opacity="1.000000" stroke="none" 
	d="
M60.057388,165.330200 
	C60.809891,165.257294 61.613712,165.524307 62.707825,165.931580 
	C63.315727,166.830475 63.633335,167.589111 64.015846,168.650345 
	C62.756737,167.858658 61.432720,166.764374 60.057388,165.330200 
z"/>
<path fill="#CFCED3" opacity="1.000000" stroke="none" 
	d="
M67.171692,170.167084 
	C67.623238,170.114685 68.267593,170.289932 68.962112,170.730804 
	C68.463020,170.795853 67.913757,170.595291 67.171692,170.167084 
z"/>
<path fill="#FDCAC9" opacity="1.000000" stroke="none" 
	d="
M105.527512,152.331055 
	C101.927979,145.368286 102.097145,143.215286 107.073997,141.175888 
	C108.990578,140.390533 112.537666,140.380981 113.682785,141.589706 
	C115.994980,144.030334 118.017090,147.437622 118.433609,150.668625 
	C118.620857,152.121094 114.855789,155.100494 112.529312,155.549713 
	C110.533234,155.935150 108.031937,153.704163 105.527512,152.331055 
z"/>
<path fill="#FDDFDF" opacity="1.000000" stroke="none" 
	d="
M65.003647,112.603302 
	C63.595592,112.986099 62.207890,112.989075 60.402977,112.983772 
	C61.659027,110.230904 63.332283,107.486305 65.015762,104.359207 
	C69.873886,106.726799 64.758247,109.474487 65.003647,112.603302 
z"/>
<path fill="#E8575A" opacity="1.000000" stroke="none" 
	d="
M87.820343,136.954895 
	C88.087471,137.868683 88.047279,138.602081 88.005600,139.704941 
	C88.004097,140.074417 88.000076,140.006165 87.723427,139.998093 
	C87.034004,140.009445 86.621231,140.028870 86.208458,140.048279 
	C81.851143,136.972794 77.493828,133.897293 73.031197,130.511597 
	C77.788261,132.392441 82.650642,134.583466 87.820343,136.954895 
z"/>
<path fill="#F87D7D" opacity="1.000000" stroke="none" 
	d="
M76.677574,141.963531 
	C75.223480,141.072174 74.162025,140.161697 73.100563,139.251236 
	C73.995125,138.512100 74.923279,137.139557 75.776230,137.184799 
	C77.003685,137.249908 78.176437,138.346298 79.372543,139.002518 
	C78.605103,139.983170 77.837662,140.963806 76.677574,141.963531 
z"/>
<path fill="#824A4D" opacity="1.000000" stroke="none" 
	d="
M86.170189,140.452789 
	C86.621231,140.028870 87.034004,140.009445 87.757538,139.995850 
	C87.535133,140.679321 87.001961,141.356949 86.218491,142.256897 
	C86.022766,141.938568 86.077347,141.397919 86.170189,140.452789 
z"/>
<path fill="#824A4D" opacity="1.000000" stroke="none" 
	d="
M97.784409,128.804169 
	C97.888931,128.922760 97.520630,129.118759 97.314888,129.156677 
	C97.143684,128.776123 97.333931,128.606461 97.784409,128.804169 
z"/>
<path fill="#E8E8EB" opacity="1.000000" stroke="none" 
	d="
M177.511688,130.527802 
	C177.480881,130.542831 177.542496,130.512772 177.511688,130.527802 
z"/>
</svg>