<?xml version="1.0" standalone="no"?>
<!DOCTYPE svg PUBLIC "-//W3C//DTD SVG 20010904//EN"
 "http://www.w3.org/TR/2001/REC-SVG-20010904/DTD/svg10.dtd">
<svg version="1.0" xmlns="http://www.w3.org/2000/svg"
 width="740.000000pt" height="740.000000pt" viewBox="0 0 740.000000 740.000000"
 preserveAspectRatio="xMidYMid meet">

<g transform="translate(0.000000,740.000000) scale(0.100000,-0.100000)"
fill="#000000" stroke="none">
<path d="M0 3700 l0 -3700 3700 0 3700 0 0 902 0 902 -35 -34 -35 -34 0 50 c0
69 24 174 49 215 12 19 21 48 20 64 l0 30 -20 -40 -19 -40 4 45 5 45 -16 -33
c-10 -19 -22 -31 -30 -28 -10 4 -12 -1 -7 -20 7 -29 -31 -169 -52 -193 -10
-11 -14 -5 -19 35 -9 58 -20 74 -51 74 -21 0 -24 6 -31 52 l-7 53 -8 -60 c-4
-33 -6 -76 -3 -95 4 -30 3 -31 -5 -10 -5 14 -18 111 -29 215 -12 105 -26 228
-31 275 -5 47 -12 117 -15 155 -15 179 -23 122 -19 -130 6 -306 18 -550 36
-677 11 -79 8 -111 -8 -95 -8 7 -25 73 -31 120 -5 36 -22 62 -24 35 0 -7 -5
-2 -10 11 -5 13 -12 21 -15 19 -3 -3 -12 -50 -21 -104 -22 -140 -30 -182 -32
-162 0 10 -7 15 -15 12 -9 -4 -15 6 -20 33 -3 21 -17 72 -31 113 l-24 75 5
-80 c7 -94 -3 -94 -22 2 -7 37 -23 113 -34 168 -29 144 -52 236 -58 230 -3 -2
-10 2 -16 11 -9 12 -11 6 -9 -28 l2 -43 -10 39 c-30 121 -22 -4 16 -233 48
-296 50 -323 30 -354 -21 -33 -31 -24 -41 41 -10 67 -24 49 -24 -32 0 -97 -5
-111 -33 -91 -30 21 -37 19 -37 -9 0 -19 -4 -23 -20 -19 -11 3 -20 9 -20 14 0
5 -5 9 -12 9 -9 0 -9 -3 0 -12 7 -7 12 -20 12 -30 0 -17 -1 -18 -25 -2 -25 16
-27 16 -46 -5 -27 -29 -45 -21 -41 18 2 34 -4 37 -42 20 -21 -10 -24 -16 -19
-47 5 -26 3 -33 -6 -28 -6 4 -18 3 -26 -4 -21 -17 -30 8 -11 29 25 27 19 33
-24 26 -33 -6 -40 -4 -40 9 0 9 -7 16 -16 16 -9 0 -23 8 -30 18 -13 16 -16 15
-39 -11 -13 -15 -22 -34 -19 -42 3 -8 -7 -30 -22 -50 -22 -29 -29 -33 -36 -22
-4 9 -2 30 8 52 20 48 12 55 -15 13 -11 -18 -21 -26 -21 -19 0 8 30 59 67 114
38 54 75 108 83 120 30 46 -35 -21 -101 -104 -59 -73 -66 -80 -93 -75 -16 3
-46 6 -67 6 -38 0 -39 1 -33 27 6 23 5 25 -12 18 -34 -14 -93 -18 -183 -13
-36 2 -55 -1 -58 -9 -3 -7 -15 -13 -27 -13 -12 0 -32 -7 -44 -16 -22 -15 -25
-15 -48 7 -24 22 -26 23 -35 6 -7 -12 -17 -15 -35 -11 -16 4 -31 1 -42 -9 -31
-28 -71 -32 -102 -8 -16 11 -31 17 -35 12 -3 -5 -37 -15 -75 -21 -72 -12 -79
-17 -58 -38 9 -9 9 -12 0 -12 -7 0 -12 -4 -12 -9 0 -11 83 -27 114 -23 10 1
24 -3 31 -8 9 -8 15 -8 20 0 3 5 15 10 26 10 14 0 19 -6 17 -20 -2 -10 6 -26
17 -34 18 -14 18 -15 2 -16 -10 0 -29 7 -43 16 -19 13 -28 14 -37 5 -6 -6 -19
-11 -29 -11 -10 0 -18 -6 -18 -14 0 -15 -34 -11 -57 6 -24 19 -74 27 -94 15
-17 -10 -22 -9 -33 6 -8 10 -24 16 -37 15 -13 -2 -24 2 -24 7 0 6 -7 19 -15
30 -11 15 -28 20 -68 22 -59 1 -72 7 -53 26 9 9 14 9 21 -3 7 -12 13 -12 37 0
l28 13 -44 8 c-26 5 -51 4 -62 -2 -21 -11 -67 -3 -89 16 -8 7 -45 16 -82 20
-48 5 -68 11 -68 21 0 9 -12 14 -35 14 -19 0 -35 3 -35 8 1 4 26 23 57 42 66
41 254 218 301 284 18 25 30 46 27 46 -3 0 10 31 30 68 35 67 42 89 51 146 6
46 83 176 99 170 9 -4 20 7 32 30 9 20 20 36 24 36 4 0 10 11 13 25 4 14 12
25 19 25 21 1 49 49 43 74 -4 15 1 31 14 46 13 15 17 28 11 37 -11 21 -1 63
15 63 7 0 19 -6 26 -13 10 -11 16 -9 35 14 22 25 30 62 37 174 1 17 15 56 30
88 15 31 27 69 26 85 -3 32 9 90 20 97 4 2 12 -7 19 -22 11 -25 13 -25 25 -7
22 32 29 64 15 80 -10 12 -9 17 6 27 16 13 16 14 0 31 -12 11 -16 28 -13 51 2
19 0 36 -6 38 -5 2 -4 16 5 35 15 34 29 42 29 17 0 -8 4 -15 9 -15 5 0 9 13 9
30 -1 16 5 36 12 45 12 14 15 14 36 0 27 -18 34 -19 34 -5 0 5 -16 17 -36 25
-28 11 -40 12 -50 4 -10 -8 -14 -8 -14 -1 0 6 4 13 9 17 6 3 7 28 4 56 -4 35
-2 53 6 58 7 5 13 14 14 22 2 8 6 20 10 27 5 6 6 16 3 20 -3 5 2 21 10 36 7
16 14 40 14 55 0 33 17 51 47 51 13 0 23 4 23 8 0 14 -23 32 -42 32 -11 0 -18
7 -18 20 0 11 -7 23 -16 27 -9 3 -14 15 -12 32 2 21 -2 27 -20 29 -12 2 -24
-3 -28 -11 -6 -15 15 -108 39 -172 18 -47 12 -59 -13 -28 -9 12 -21 19 -24 15
-4 -3 -11 0 -16 8 -14 21 -12 30 4 24 22 -9 29 15 12 41 -9 13 -16 33 -16 44
0 34 -18 33 -23 -1 -3 -22 -4 -18 -4 14 1 26 -2 50 -6 54 -16 16 -1 83 31 144
5 8 6 45 2 83 -4 51 -2 67 7 67 9 0 13 -15 13 -44 0 -55 20 -73 21 -19 3 86
-9 123 -39 123 -13 0 -24 17 -39 58 l-22 57 4 -50 c2 -28 5 -57 7 -65 3 -16
-30 -19 -69 -6 -17 5 -23 4 -23 -8 0 -9 5 -16 11 -16 5 0 8 -4 5 -9 -8 -12 20
-22 39 -15 18 7 19 -5 1 -29 -12 -16 -15 -15 -40 9 -14 15 -26 35 -26 45 0 11
-5 19 -11 19 -5 0 -8 4 -5 8 2 4 -9 18 -25 31 -16 13 -29 31 -29 40 0 9 -4 21
-9 27 -5 5 -16 43 -24 84 -9 41 -22 98 -31 125 l-15 50 2 -85 c1 -47 -2 -112
-7 -145 -8 -55 -8 -59 8 -46 12 10 19 11 30 1 19 -15 10 -40 -14 -40 -15 0
-20 -12 -26 -67 -4 -44 -3 -73 5 -85 6 -10 11 -25 11 -33 0 -8 5 -15 10 -15 6
0 10 5 10 11 0 6 7 18 17 27 13 13 15 13 11 2 -3 -8 1 -23 10 -32 14 -17 13
-18 -11 -18 -24 0 -26 -3 -20 -30 3 -19 1 -30 -6 -30 -6 0 -11 9 -11 20 0 11
-4 20 -9 20 -5 0 -7 -17 -5 -38 2 -21 0 -51 -4 -67 -8 -30 -28 -45 -30 -23 0
7 -3 37 -6 65 -4 36 -2 52 5 50 7 -1 14 4 16 11 3 8 -1 10 -11 6 -9 -3 -16 -2
-16 4 0 18 -48 19 -86 0 -46 -22 -54 -22 -54 -3 0 11 -11 15 -41 15 l-41 0 16
24 c16 26 7 44 -16 30 -7 -4 -8 -3 -4 4 4 8 -4 17 -21 24 -27 11 -27 12 -5 15
27 5 27 6 -3 51 -29 42 -33 67 -9 58 9 -3 18 -6 20 -6 2 0 4 -8 4 -17 0 -10 5
-25 10 -33 7 -10 8 0 5 35 l-5 50 15 -54 c17 -59 23 -71 34 -71 4 0 2 23 -5
50 -7 28 -20 137 -29 243 -17 197 -37 320 -29 177 2 -41 6 -113 8 -159 l5 -85
-24 30 c-13 16 -21 31 -19 34 3 2 9 -2 14 -10 6 -8 10 -10 10 -4 0 15 -103
110 -183 167 -40 29 -69 58 -73 72 -5 19 -9 22 -19 12 -16 -15 2 -40 78 -101
70 -58 103 -109 90 -139 -9 -20 -11 -19 -22 15 -7 21 -25 47 -40 57 -32 23
-99 108 -131 166 -12 22 -27 45 -32 52 -5 7 -7 20 -4 30 3 10 1 25 -4 33 -9
13 -11 13 -20 0 -8 -13 -10 -12 -10 3 0 10 -7 26 -16 34 -8 9 -13 25 -11 35 3
11 -1 22 -9 25 -8 3 -12 9 -9 14 3 4 12 6 20 2 8 -3 15 0 15 6 0 6 -4 11 -10
11 -5 0 -10 8 -10 18 0 14 -2 15 -10 2 -11 -17 -12 -4 -2 22 5 13 15 2 41 -47
41 -76 54 -81 17 -6 l-26 51 35 15 c33 13 40 13 88 -5 53 -20 167 -102 167
-120 0 -6 7 -10 16 -10 8 0 13 -4 9 -9 -3 -5 0 -13 6 -17 8 -4 9 -3 5 4 -10
16 0 15 32 -4 l27 -16 -25 19 c-14 10 -48 39 -76 65 -28 27 -56 48 -62 48 -7
0 -12 4 -12 10 0 5 -11 12 -25 16 -14 3 -25 9 -25 13 0 4 -24 16 -54 26 -59
20 -158 86 -138 93 6 2 12 8 12 14 0 5 -8 7 -18 4 -46 -15 -254 152 -276 222
-4 12 -19 34 -32 47 -14 14 -22 30 -19 35 3 5 -1 33 -10 62 -8 28 -15 53 -15
54 0 1 15 8 34 14 40 13 63 35 46 45 -5 3 -10 -1 -10 -9 0 -15 -65 -40 -80
-31 -12 7 -42 126 -36 141 3 7 2 13 -2 13 -22 -4 -42 2 -37 10 3 5 1 12 -5 16
-5 3 -10 15 -10 26 0 10 -6 19 -12 19 -9 0 -10 3 -2 8 6 4 14 23 17 42 l6 35
-18 -34 c-11 -21 -21 -30 -25 -22 -4 6 -25 11 -47 11 -22 0 -52 6 -67 14 -55
28 -75 26 -22 -2 38 -20 64 -28 86 -25 25 4 35 0 48 -18 9 -13 16 -29 16 -37
0 -7 11 -28 25 -46 14 -18 25 -46 25 -63 0 -16 7 -52 15 -79 8 -27 15 -53 15
-57 0 -9 -32 -1 -71 18 -24 11 -26 10 -22 -5 3 -11 18 -20 43 -24 45 -7 70
-28 70 -60 0 -30 51 -127 104 -196 39 -52 82 -130 70 -130 -21 0 -87 46 -94
66 -6 14 -14 23 -20 19 -5 -3 -26 12 -47 33 -41 42 -73 62 -98 62 -9 0 -35 9
-57 20 -47 23 -48 23 -48 12 0 -5 33 -19 72 -32 80 -26 123 -60 113 -89 -4
-15 -1 -17 18 -14 13 3 29 -2 36 -11 10 -12 8 -17 -15 -29 -19 -10 -23 -16
-14 -22 7 -4 16 -2 21 6 8 12 11 12 20 -1 9 -13 10 -12 5 3 -5 17 -5 17 19 0
13 -10 25 -24 25 -30 0 -16 20 -18 20 -3 0 15 82 -43 112 -79 14 -16 28 -47
31 -69 4 -23 29 -74 59 -121 69 -105 112 -174 117 -186 2 -5 -28 20 -68 58
-39 37 -79 67 -89 67 -12 0 -8 -6 13 -19 17 -10 50 -40 75 -67 l45 -49 -27 -3
c-16 -2 -28 -7 -28 -11 0 -4 12 -6 28 -4 42 6 89 -41 86 -87 -1 -19 -3 -36 -4
-37 -3 -4 -7 -20 -9 -33 -3 -25 -21 -7 -21 21 0 28 -2 30 -30 25 -26 -4 -30
-1 -30 20 0 16 -9 28 -30 39 -17 9 -42 33 -56 54 -14 22 -34 41 -45 44 -11 3
-23 15 -26 26 -3 11 -15 21 -27 23 -12 2 -20 9 -19 18 2 8 -6 21 -17 28 -16 9
-18 9 -14 -2 8 -21 -15 -30 -42 -15 -26 13 -33 35 -9 25 13 -5 13 -2 -1 19 -9
14 -20 22 -25 19 -8 -4 -13 16 -11 38 2 11 -27 18 -34 7 -4 -6 -11 -6 -20 2
-15 12 -19 6 -26 -36 -2 -12 -12 -21 -26 -23 -12 -2 -27 -12 -32 -23 -6 -10
-17 -19 -25 -19 -8 0 -15 -5 -15 -11 0 -5 -4 -7 -10 -4 -6 3 -7 -1 -4 -9 3 -9
1 -16 -5 -16 -6 0 -10 -6 -8 -12 1 -7 -4 -12 -11 -10 -7 1 -22 -8 -32 -20 -19
-23 -19 -23 -34 -3 -15 19 -15 19 -10 -5 4 -21 3 -22 -4 -5 -11 25 -4 48 14
41 9 -3 11 0 7 11 -5 12 -3 14 8 8 12 -8 12 -6 0 8 -7 9 -11 24 -7 32 3 8 0
15 -7 15 -8 0 -6 4 3 10 13 8 12 11 -5 24 -17 12 -18 17 -7 40 14 31 9 32 -29
5 -34 -24 -38 -15 -7 18 l22 23 -33 -11 c-17 -6 -34 -9 -37 -7 -10 11 29 81
69 123 24 25 40 45 35 45 -4 0 -8 9 -8 20 0 11 6 20 14 20 21 0 25 21 10 55
-10 23 -13 25 -14 10 -1 -33 -17 2 -28 63 -8 46 -7 56 10 77 19 25 12 35 -9
14 -7 -7 -12 -3 -17 16 -4 14 -11 23 -16 20 -6 -3 -10 1 -10 9 0 9 5 16 10 16
6 0 10 4 10 9 0 11 -19 9 -40 -4 -9 -5 -6 1 5 14 19 21 19 24 2 35 -22 17 -47
77 -47 113 0 23 8 31 40 46 50 23 91 16 124 -24 14 -16 27 -25 30 -20 8 12
-63 71 -84 71 -9 0 -26 8 -40 17 -22 16 -23 16 -17 -1 4 -10 2 -16 -6 -15 -28
3 -39 -2 -33 -16 3 -8 1 -15 -4 -15 -14 0 -21 18 -10 25 14 9 13 65 -2 65 -8
0 -9 3 -2 10 15 15 -2 142 -21 153 -19 10 -20 41 -1 34 11 -4 13 1 10 21 -7
36 -65 206 -73 212 -3 3 -13 21 -22 40 -57 120 -76 151 -127 205 -93 99 -125
143 -157 219 -29 68 -33 99 -14 122 5 6 4 15 -2 21 -16 16 8 29 91 52 l75 21
-58 -6 c-111 -11 -315 -95 -452 -187 -123 -82 -298 -260 -437 -442 -155 -205
-353 -535 -430 -720 -27 -66 -65 -159 -72 -179 -3 -10 -9 -16 -12 -13 -12 11
93 278 186 474 275 579 728 1004 1168 1095 114 23 305 28 400 9 419 -81 827
-412 1116 -904 68 -116 238 -455 256 -512 7 -22 15 -34 17 -27 8 21 71 15 83
-8 15 -29 5 -39 -34 -35 l-35 3 15 -46 c7 -26 14 -47 14 -48 0 -4 30 1 30 6 0
3 9 6 20 6 11 0 20 -4 20 -8 0 -4 7 -8 16 -8 8 0 13 -4 10 -9 -3 -5 1 -11 9
-14 8 -4 28 -34 45 -68 17 -33 26 -58 20 -54 -19 12 11 -38 31 -53 10 -7 26
-39 35 -70 8 -31 19 -68 24 -82 5 -14 11 -38 14 -55 14 -96 20 -121 28 -132 6
-7 8 -19 5 -28 -4 -8 0 -32 7 -52 7 -21 16 -64 20 -96 4 -36 13 -64 26 -77 10
-10 22 -35 26 -54 3 -20 10 -36 15 -36 5 0 15 -13 24 -30 9 -16 23 -30 33 -31
14 0 14 -2 2 -6 -53 -20 -34 -133 22 -133 20 0 26 38 8 56 -13 13 -2 44 15 44
8 0 15 -20 19 -53 7 -50 9 -54 42 -66 22 -8 44 -26 56 -47 11 -19 24 -34 28
-34 5 0 11 -8 13 -17 3 -12 5 -9 6 8 0 14 13 51 29 81 l28 55 -28 16 c-34 19
-34 26 -7 61 17 21 27 26 48 21 23 -5 28 -1 38 25 8 21 18 30 34 30 13 0 35
15 56 39 33 39 86 62 104 44 9 -9 -49 -131 -79 -165 -17 -21 -14 -22 24 -8 21
8 31 7 45 -6 25 -22 24 -61 -1 -74 -11 -6 -17 -16 -14 -25 9 -21 -53 -55 -102
-55 -38 0 -41 -2 -37 -23 4 -18 -4 -31 -27 -50 -20 -17 -26 -27 -16 -27 8 0
18 5 21 10 9 15 25 12 19 -4 -3 -9 11 -21 42 -36 53 -24 124 -70 109 -70 -5 0
29 -24 76 -54 105 -66 216 -144 221 -154 2 -4 19 -15 39 -25 20 -11 50 -31 67
-46 16 -16 36 -31 44 -35 7 -3 45 -23 83 -44 39 -21 96 -53 129 -70 32 -18 71
-32 86 -32 15 0 47 -7 70 -15 23 -8 64 -15 89 -15 41 0 52 -5 86 -39 53 -50
85 -92 85 -111 0 -8 7 -24 15 -34 13 -17 15 238 15 2137 l0 2157 -3700 0
-3700 0 0 -3700z m5369 3060 c11 0 21 -4 21 -9 0 -5 8 -11 19 -14 27 -7 26
-57 -1 -57 -17 0 -18 -3 -9 -14 10 -12 8 -17 -8 -25 -11 -6 -27 -11 -35 -11
-9 0 -16 -4 -16 -10 0 -14 -78 -52 -103 -49 -12 2 -48 -14 -79 -34 -60 -39
-74 -45 -62 -26 5 9 -2 10 -22 6 -16 -4 -50 -10 -76 -13 -40 -6 -48 -4 -48 10
0 10 9 16 25 16 14 0 25 5 25 10 0 6 -6 10 -14 10 -24 0 -39 26 -23 41 7 7 12
23 9 35 -3 17 3 26 27 38 17 9 31 21 31 26 0 6 7 10 15 10 9 0 18 7 21 15 3 8
22 19 42 26 37 12 47 7 83 -50 7 -11 12 -12 15 -4 12 29 48 65 82 83 32 16 39
17 48 4 6 -8 21 -14 33 -14z m279 -67 c2 -30 7 -40 16 -37 22 8 31 -65 12 -84
-13 -13 -18 -14 -28 -4 -10 10 -10 15 2 22 8 5 11 12 7 17 -5 4 -12 1 -16 -6
-11 -18 -34 -3 -27 16 8 19 -11 44 -28 37 -6 -2 -20 2 -31 11 -14 10 -15 13
-4 9 13 -4 15 0 11 22 -4 22 -2 26 11 21 11 -4 14 -2 10 8 -4 12 3 14 28 12
32 -2 34 -5 37 -44z m-3406 -400 c8 -10 20 -31 26 -46 10 -23 16 -27 35 -21
45 14 51 10 60 -36 22 -120 22 -117 -14 -139 -19 -12 -51 -21 -71 -21 -34 0
-38 2 -44 35 -3 19 -21 55 -40 79 -37 49 -42 79 -20 131 17 39 44 46 68 18z
m-107 -217 c38 -16 46 -44 19 -66 -19 -16 -130 1 -152 24 -41 41 60 72 133 42z
m15 -169 c0 -19 -64 -47 -107 -47 -36 0 -36 0 -18 20 30 33 125 53 125 27z
m900 -142 c16 -19 13 -23 -25 -25 -56 -4 -60 -2 -40 20 22 24 48 26 65 5z
m480 5 c0 -5 -4 -10 -10 -10 -5 0 -10 5 -10 10 0 6 5 10 10 10 6 0 10 -4 10
-10z m190 -210 c0 -5 -4 -10 -10 -10 -5 0 -10 5 -10 10 0 6 5 10 10 10 6 0 10
-4 10 -10z m1468 -15 c-3 -3 -9 2 -12 12 -6 14 -5 15 5 6 7 -7 10 -15 7 -18z
m57 -105 c8 -16 15 -37 15 -47 -1 -14 -4 -13 -14 7 -17 32 -29 70 -22 70 3 0
12 -13 21 -30z m-1845 -120 c0 -5 -5 -10 -11 -10 -5 0 -7 5 -4 10 3 6 8 10 11
10 2 0 4 -4 4 -10z m450 -26 c0 -8 -4 -12 -10 -9 -5 3 -10 10 -10 16 0 5 5 9
10 9 6 0 10 -7 10 -16z m585 -246 c14 -6 25 -15 25 -20 0 -13 -13 -9 -40 12
-28 22 -23 25 15 8z m-1094 -31 c-13 -13 -26 -3 -16 12 3 6 11 8 17 5 6 -4 6
-10 -1 -17z m1165 -15 c12 -9 24 -25 27 -35 5 -14 2 -16 -20 -13 -14 3 -35 15
-46 27 -16 17 -17 23 -6 30 19 12 21 11 45 -9z m-682 -17 c28 -30 37 -66 29
-124 -10 -71 -55 -65 -92 12 -25 52 -27 85 -5 115 20 29 40 28 68 -3z m809
-77 c-33 -12 -43 -8 -63 25 -33 53 -23 60 30 20 42 -31 47 -39 33 -45z m-88
22 c3 -5 -1 -10 -9 -10 -8 0 -18 5 -21 10 -3 6 1 10 9 10 8 0 18 -4 21 -10z
m-955 -25 c52 -18 210 -113 210 -126 0 -13 -22 -11 -65 7 -20 8 -40 13 -42 10
-3 -3 15 -14 39 -25 25 -11 49 -24 52 -30 11 -16 -5 -13 -48 10 -32 17 -40 18
-49 6 -20 -24 -43 -26 -76 -6 -31 19 -41 39 -20 39 22 0 -12 29 -41 35 -39 9
-125 64 -114 75 24 22 98 25 154 5z m-240 -199 c0 -11 -19 -15 -25 -6 -3 5 1
10 9 10 9 0 16 -2 16 -4z m380 -22 c0 -17 5 -17 31 -4 11 6 19 7 19 1 0 -15
-28 -21 -93 -20 -34 0 -56 3 -49 6 6 2 12 11 12 19 0 20 20 17 21 -3 0 -10 3
-13 5 -6 3 7 12 9 20 6 10 -4 12 0 8 11 -5 12 -2 15 10 10 9 -3 16 -12 16 -20z
m81 -46 c-5 -13 -16 -30 -24 -37 -13 -10 -17 -9 -26 7 -9 17 -6 23 21 41 38
23 42 22 29 -11z m31 -24 c-3 -15 -8 -22 -14 -16 -9 9 -1 42 12 42 4 0 5 -12
2 -26z m48 -25 c0 -5 4 -8 9 -5 5 3 12 -1 15 -9 7 -20 -23 -32 -35 -14 -12 19
-11 39 1 39 6 0 10 -5 10 -11z m822 -196 c11 -13 17 -47 20 -113 4 -83 4 -90
-6 -52 -6 24 -14 40 -18 37 -7 -7 -13 23 -22 103 -4 45 2 52 26 25z m1428 -7
c0 -22 -47 -55 -70 -49 -28 7 -33 19 -20 43 13 25 90 30 90 6z m-1210 -59 c6
-24 10 -59 8 -78 l-3 -34 -22 42 c-15 28 -22 56 -21 87 3 55 20 47 38 -17z
m-656 22 c6 -5 3 -11 -7 -14 -19 -8 -60 12 -51 26 6 10 42 3 58 -12z m534 -69
l0 -25 -8 25 c-4 14 -8 36 -8 50 l0 25 8 -25 c4 -14 8 -36 8 -50z m84 -16 c34
-73 43 -139 18 -139 -10 0 -20 21 -31 65 -20 79 -29 140 -23 140 3 0 19 -30
36 -66z m-302 -19 c0 -8 -4 -15 -10 -15 -5 0 -10 7 -10 15 0 8 5 15 10 15 6 0
10 -7 10 -15z m227 -32 c-3 -10 -5 -4 -5 12 0 17 2 24 5 18 2 -7 2 -21 0 -30z
m180 0 c-3 -10 -5 -4 -5 12 0 17 2 24 5 18 2 -7 2 -21 0 -30z m-1577 7 c36
-25 60 -77 60 -129 0 -61 -22 -68 -92 -28 -70 40 -118 78 -118 94 0 6 -9 18
-20 26 -20 14 -20 15 12 36 44 28 120 28 158 1z m1562 -25 c3 -14 1 -25 -3
-25 -5 0 -9 11 -9 25 0 14 2 25 4 25 2 0 6 -11 8 -25z m-320 -45 c-2 -22 -6
-40 -8 -40 -2 0 -4 18 -4 40 0 22 3 40 8 40 4 0 6 -18 4 -40z m-3095 4 c17 -3
65 -35 109 -70 71 -58 79 -62 86 -44 4 11 12 20 18 20 13 0 13 -13 0 -26 -7
-7 -6 -22 5 -48 9 -20 12 -42 8 -49 -4 -7 -6 -20 -4 -30 1 -12 -5 -20 -18 -24
-23 -6 -27 -18 -11 -28 16 -10 11 -25 -8 -25 -11 0 -27 -9 -37 -20 -15 -16
-15 -22 -5 -35 12 -15 11 -16 -12 -19 -7 0 -14 -13 -16 -28 -3 -21 1 -28 14
-28 14 0 16 -7 10 -49 -7 -53 4 -72 30 -50 19 16 25 9 30 -38 10 -74 9 -86 -5
-91 -10 -3 -12 1 -9 16 8 30 -23 54 -64 50 -31 -3 -33 -5 -30 -37 1 -20 11
-40 22 -48 16 -11 17 -17 6 -37 -6 -13 -10 -42 -8 -64 4 -37 6 -40 25 -33 16
6 26 3 38 -13 15 -18 15 -23 2 -43 -8 -13 -12 -30 -9 -39 5 -13 10 -13 36 6
l30 22 -2 -46 c-3 -40 -7 -47 -30 -55 -34 -12 -36 -34 -5 -54 19 -12 23 -24
23 -58 -1 -43 -1 -43 -43 -52 -25 -5 -43 -14 -43 -21 0 -21 28 -39 50 -33 23
6 24 4 8 -24 -11 -17 -10 -23 9 -38 15 -13 20 -25 16 -40 -4 -16 -1 -21 14
-21 10 0 26 -9 36 -20 18 -21 37 -26 37 -10 0 6 7 10 15 10 20 0 19 -17 -2
-29 -12 -7 -13 -11 -5 -11 10 0 12 -8 7 -30 -4 -16 -4 -30 -2 -30 16 0 37 36
37 63 1 30 1 31 15 13 8 -11 13 -28 10 -37 -8 -26 5 -69 21 -69 8 0 14 -7 14
-16 0 -9 11 -25 25 -36 19 -15 25 -29 25 -59 0 -48 62 -206 139 -356 91 -175
198 -320 348 -472 126 -126 149 -152 121 -135 -12 8 -44 11 -188 18 -41 2 -82
6 -90 9 -15 6 -154 17 -224 17 -21 0 -44 -4 -51 -10 -7 -6 -25 -8 -40 -4 -15
4 -36 1 -49 -5 -17 -9 -37 -10 -77 -3 -31 6 -61 6 -70 1 -23 -12 -149 0 -176
17 -30 19 -41 18 -48 -5 -9 -29 -56 -34 -82 -8 l-23 20 -23 -21 c-26 -25 -59
-28 -76 -8 -9 10 -8 16 4 26 22 19 18 27 -16 34 -25 5 -29 9 -24 26 8 27 -18
37 -53 20 -15 -7 -39 -12 -54 -11 -16 1 -29 -1 -29 -6 -6 -38 -5 -59 3 -64 7
-4 6 -9 -1 -13 -6 -4 -16 4 -23 18 -14 31 -22 32 -41 6 -14 -20 -14 -20 -36 1
-15 14 -31 19 -47 16 -14 -2 -42 2 -64 9 -22 8 -52 11 -67 8 -21 -4 -33 0 -47
15 -11 12 -28 21 -39 21 -17 0 -19 5 -14 37 12 73 154 370 251 523 l47 75 -57
-60 c-83 -90 -157 -190 -214 -290 l-50 -90 0 40 c0 126 192 574 325 760 30 41
51 75 46 75 -4 0 -37 -37 -73 -82 -104 -132 -196 -284 -249 -412 l-30 -71 7
75 c12 149 107 606 135 648 8 13 9 9 5 -18 -5 -28 -4 -31 5 -17 6 11 9 29 6
43 -2 13 0 21 4 18 5 -3 9 4 9 16 0 12 4 18 10 15 5 -3 17 3 27 15 22 25 34
25 75 0 45 -28 103 -43 162 -41 55 1 85 16 105 54 16 29 10 36 -83 100 -44 31
-75 31 -134 2 -16 -9 -37 -13 -45 -9 -14 5 -13 10 5 45 29 56 62 79 114 79 34
0 44 4 49 20 3 11 26 36 50 57 23 21 59 63 78 93 19 30 46 66 60 79 14 13 29
36 32 52 4 16 11 31 16 34 15 10 10 129 -7 164 -9 17 -13 38 -10 46 3 8 -3 20
-13 27 -9 7 -20 21 -24 31 -3 9 -13 17 -21 17 -19 0 -84 74 -92 105 -4 15 -1
38 5 51 6 14 11 42 11 63 0 43 15 60 63 71 43 10 59 11 94 4z m5027 -20 c22
-8 20 -31 -4 -46 -11 -7 -20 -21 -20 -30 0 -35 -28 -19 -32 18 -6 50 17 73 56
58z m-1244 -98 c-17 -17 -27 8 -22 51 l5 38 14 -39 c9 -28 10 -43 3 -50z
m-636 -48 c9 -21 16 -43 16 -50 0 -7 -14 16 -30 52 -16 36 -29 79 -29 95 1 26
2 24 14 -15 7 -25 20 -62 29 -82z m226 92 c0 -5 -2 -10 -4 -10 -3 0 -8 5 -11
10 -3 6 -1 10 4 10 6 0 11 -4 11 -10z m50 -80 c0 -5 -7 -10 -16 -10 -8 0 -12
5 -9 10 3 6 10 10 16 10 5 0 9 -4 9 -10z m-437 -14 c86 -37 127 -134 96 -225
-10 -29 -13 -31 -28 -17 -10 9 -22 16 -28 16 -20 0 -189 117 -205 142 -15 23
-15 27 -1 48 32 45 107 62 166 36z m916 -42 c12 -15 21 -34 20 -43 0 -12 -4
-11 -16 7 -11 16 -25 22 -54 22 -26 0 -39 5 -39 13 0 37 60 38 89 1z m51 -21
c0 -20 -3 -24 -11 -16 -7 7 -9 19 -6 27 10 24 17 19 17 -11z m770 12 c0 -8 -4
-15 -10 -15 -5 0 -10 7 -10 15 0 8 5 15 10 15 6 0 10 -7 10 -15z m-1349 -62
c13 -16 12 -17 -3 -4 -17 13 -22 21 -14 21 2 0 10 -8 17 -17z m53 -8 c11 -8
28 -13 37 -10 13 4 17 0 15 -18 l-1 -24 -35 25 c-50 37 -56 42 -44 42 5 0 18
-7 28 -15z m520 -35 c5 -23 4 -30 -2 -20 -14 23 -25 77 -14 65 6 -5 13 -26 16
-45z m-347 3 c-8 -7 -37 9 -31 19 3 5 12 4 20 -3 8 -6 13 -14 11 -16z m301 -6
c15 -30 9 -47 -16 -47 -34 0 -43 14 -31 49 13 37 28 36 47 -2z m-4733 -12 c0
-14 -8 -21 -27 -23 -22 -3 -28 1 -28 17 0 10 6 22 13 24 23 10 42 2 42 -18z
m4261 12 c11 -11 -19 -8 -36 3 -12 8 -10 9 7 7 12 -2 26 -6 29 -10z m198 -20
c-3 -9 -10 -17 -15 -17 -16 0 -10 -25 17 -63 26 -39 50 -41 38 -4 -6 21 -5 21
11 6 13 -13 15 -21 6 -37 -7 -14 -8 -23 -1 -27 5 -3 10 3 10 14 0 12 2 21 5
21 8 0 54 -53 55 -62 0 -13 -28 -9 -34 5 -3 6 -4 -6 -3 -28 1 -24 -2 -38 -8
-35 -6 3 -10 11 -10 19 0 8 -6 16 -13 19 -8 2 -11 -5 -10 -19 2 -15 -3 -24
-14 -27 -13 -3 -18 3 -18 21 0 14 5 27 12 29 9 3 9 6 -1 12 -8 5 -14 1 -18
-13 -4 -15 -13 -21 -34 -21 -30 0 -38 17 -17 38 9 9 8 12 -5 12 -22 0 -22 27
1 34 14 4 14 5 -3 4 -44 -1 -71 3 -85 12 -12 8 -12 11 3 28 10 11 15 26 11 35
-4 13 -1 15 16 12 29 -6 78 19 61 30 -9 5 -6 11 11 20 27 14 41 6 32 -18z
m-271 0 c4 3 7 1 7 -5 0 -17 -16 -15 -31 6 -12 15 -12 16 2 5 9 -7 19 -10 22
-6z m81 -6 c3 -5 -8 -11 -24 -15 -21 -4 -34 -14 -41 -33 -6 -15 -15 -31 -22
-35 -11 -7 -9 -8 38 -23 19 -6 9 -32 -16 -40 -17 -6 -16 -10 18 -41 l38 -35
-33 16 c-18 9 -39 14 -45 12 -7 -2 -19 0 -29 4 -11 6 -18 4 -22 -7 -4 -11 -14
-13 -43 -8 -46 8 -63 21 -44 34 12 7 11 11 -3 25 -9 10 -15 22 -13 29 9 29
125 56 120 29 -2 -7 2 -13 8 -13 7 0 9 10 7 24 -3 14 -1 31 4 38 7 10 8 8 4
-4 -3 -10 -1 -18 4 -18 6 0 10 7 10 15 0 8 15 24 33 35 36 22 43 24 51 11z
m290 3 c20 -7 21 -20 3 -27 -19 -7 -41 8 -33 22 8 13 9 13 30 5z m-17 -49 c8
-23 -4 -30 -22 -12 -19 20 -19 27 0 27 9 0 18 -7 22 -15z m256 -99 c3 -8 0
-17 -7 -19 -10 -4 -12 1 -9 14 6 23 9 24 16 5z m-113 -11 c-7 -8 -17 -15 -23
-15 -6 0 -2 7 9 15 25 19 30 19 14 0z m-353 -94 c-25 -38 -80 -82 -62 -49 5 7
15 21 23 30 7 9 11 22 6 29 -5 8 -3 10 5 4 8 -4 19 1 28 15 27 38 27 12 0 -29z
m198 9 c3 -5 -1 -10 -9 -10 -9 0 -16 -7 -16 -16 0 -8 -5 -12 -11 -8 -6 3 -15
0 -20 -7 -6 -10 -9 -11 -9 -1 0 14 36 52 49 52 6 0 13 -4 16 -10z m-2806 -71
c4 -12 2 -12 -12 0 -14 11 -17 11 -17 1 0 -8 -3 -11 -6 -7 -9 9 6 29 19 24 6
-2 13 -10 16 -18z m2631 -19 c0 -32 -14 -40 -24 -14 -3 8 0 21 7 29 17 19 17
19 17 -15z m250 21 c0 -14 -18 -23 -30 -16 -6 4 -8 11 -5 16 8 12 35 12 35 0z
m-2137 -21 c20 -11 40 -20 44 -19 4 0 9 -4 11 -10 7 -21 -44 -10 -88 19 -33
22 -40 30 -25 30 11 0 37 -9 58 -20z m1707 10 c0 -5 -9 -10 -20 -10 -11 0 -20
5 -20 10 0 6 9 10 20 10 11 0 20 -4 20 -10z m660 -15 c0 -19 -20 -29 -32 -17
-8 8 -7 16 2 26 14 17 30 12 30 -9z m-2120 -9 c8 -10 8 -21 2 -32 -8 -14 -11
-12 -20 15 -12 33 -3 41 18 17z m-1667 -46 c4 -17 2 -18 -14 -9 -22 11 -25 29
-5 29 7 0 16 -9 19 -20z m3421 -27 c-11 -53 -17 -59 -24 -23 -7 41 -4 50 16
50 11 0 13 -7 8 -27z m-1049 -3 c3 -5 1 -10 -5 -10 -6 0 -8 -5 -5 -10 5 -8
-32 -30 -49 -30 -2 0 -3 13 -2 30 1 26 5 30 28 30 15 0 30 -4 33 -10z m-85
-10 c0 -5 -4 -10 -10 -10 -5 0 -10 5 -10 10 0 6 5 10 10 10 6 0 10 -4 10 -10z
m950 -15 c0 -8 -2 -15 -4 -15 -2 0 -6 7 -10 15 -3 8 -1 15 4 15 6 0 10 -7 10
-15z m29 -14 c-15 -5 -22 6 -14 19 6 9 10 9 16 -1 5 -8 4 -15 -2 -18z m470
-36 c12 -24 12 -30 -1 -39 -8 -6 -23 -23 -32 -38 -20 -31 -24 -32 -46 -18 -13
8 -12 15 7 52 12 24 24 51 27 61 8 25 28 17 45 -18z m-524 15 c3 -5 1 -10 -4
-10 -6 0 -11 5 -11 10 0 6 2 10 4 10 3 0 8 -4 11 -10z m331 -8 c1 -7 0 -8 -3
-2 -3 8 -9 7 -19 -1 -8 -6 -14 -7 -14 -2 0 24 31 28 36 5z m94 2 c0 -9 -5 -14
-12 -12 -18 6 -21 28 -4 28 9 0 16 -7 16 -16z m-180 -30 c22 -15 40 -30 40
-35 0 -10 -89 43 -90 54 0 12 8 8 50 -19z m182 -43 c-8 -23 -7 -32 4 -42 21
-17 18 -51 -3 -47 -12 3 -17 12 -16 26 2 13 -4 25 -12 28 -21 8 -19 24 7 51
27 28 33 23 20 -16z m-202 19 c0 -5 -2 -10 -4 -10 -3 0 -8 5 -11 10 -3 6 -1
10 4 10 6 0 11 -4 11 -10z m-4163 -32 c-3 -8 -6 -5 -6 6 -1 11 2 17 5 13 3 -3
4 -12 1 -19z m2818 -58 c3 -5 1 -10 -4 -10 -6 0 -11 5 -11 10 0 6 2 10 4 10 3
0 8 -4 11 -10z m1315 6 c0 -3 -4 -8 -10 -11 -5 -3 -10 -1 -10 4 0 6 5 11 10
11 6 0 10 -2 10 -4z m-4160 -20 c0 -3 -4 -8 -10 -11 -5 -3 -10 -1 -10 4 0 6 5
11 10 11 6 0 10 -2 10 -4z m4383 -23 c4 -3 -7 -23 -25 -45 -28 -36 -33 -38
-39 -22 -11 28 -10 41 1 24 8 -13 10 -12 10 4 0 12 5 16 15 12 9 -3 15 0 15 9
0 8 -7 15 -16 15 -8 0 -13 4 -9 10 5 8 25 5 48 -7z m-313 -49 c0 -2 -9 -4 -21
-4 -11 0 -18 4 -14 10 5 8 35 3 35 -6z m-4119 -31 c-12 -20 -14 -14 -5 12 4 9
9 14 11 11 3 -2 0 -13 -6 -23z m-170 -24 c7 -18 23 -43 36 -57 13 -14 23 -31
23 -40 0 -8 6 -12 15 -8 37 14 34 -29 -14 -225 -57 -225 -95 -427 -116 -613
-20 -168 -25 -197 -36 -190 -5 3 -9 -3 -10 -13 0 -11 -3 -13 -6 -5 -7 18 -23
4 -23 -21 -1 -63 -35 54 -95 323 -19 85 -48 211 -64 280 -17 68 -28 127 -25
130 12 11 30 5 56 -21 18 -18 40 -28 65 -31 37 -3 38 -2 57 50 14 39 25 54 42
58 31 8 32 44 3 70 -20 18 -21 26 -16 117 4 72 11 108 26 137 12 23 21 46 21
52 0 11 29 37 41 38 4 0 12 -14 20 -31z m1044 21 c3 -5 1 -10 -4 -10 -6 0 -11
5 -11 10 0 6 2 10 4 10 3 0 8 -4 11 -10z m3495 -31 c0 -6 -4 -7 -10 -4 -5 3
-10 11 -10 16 0 6 5 7 10 4 6 -3 10 -11 10 -16z m-3523 -52 c-8 -12 -22 -24
-32 -26 -16 -3 -15 1 4 28 25 35 51 33 28 -2z m3533 -58 c-11 -24 -20 -36 -20
-26 0 23 33 94 37 80 2 -5 -5 -30 -17 -54z m-71 8 c1 -5 -3 -5 -9 -2 -5 3 -10
16 -9 28 0 21 1 21 9 2 5 -11 9 -24 9 -28z m-124 13 c3 -6 -1 -7 -9 -4 -18 7
-21 14 -7 14 6 0 13 -4 16 -10z m-685 -161 c0 -6 -5 -7 -11 -4 -5 4 -18 0 -27
-7 -27 -24 -42 -30 -42 -19 0 6 5 11 10 11 6 0 19 9 30 20 20 20 40 19 40 -1z
m-4032 -185 c19 -64 102 -616 102 -674 0 -8 -15 12 -33 45 -33 61 -87 143
-110 167 -7 7 -28 33 -47 58 -19 25 -64 76 -100 113 -62 66 -76 96 -57 124 12
17 -5 21 -32 7 l-23 -12 22 -12 c12 -6 19 -14 17 -17 -6 -6 -67 37 -67 47 0 4
11 5 24 3 22 -5 26 -1 31 31 4 20 11 36 16 36 5 0 10 19 10 43 2 69 12 101 33
105 11 3 25 -4 32 -13 12 -15 17 -16 44 -5 16 7 30 16 30 21 0 7 53 18 75 14
6 -1 20 -37 33 -81z m30 45 c-3 -8 -7 -3 -11 10 -4 17 -3 21 5 13 5 -5 8 -16
6 -23z m4707 -54 c0 -14 -3 -25 -7 -25 -5 0 -8 11 -8 25 0 14 3 25 8 25 4 0 7
-11 7 -25z m25 -96 c0 -20 -15 -26 -25 -9 -9 15 3 43 15 35 5 -3 10 -15 10
-26z m-5040 -131 c0 -4 -9 -8 -20 -8 -13 0 -18 5 -14 15 10 26 -12 16 -40 -17
-24 -29 -28 -31 -42 -16 -15 15 -14 18 5 37 16 16 28 20 44 15 21 -6 21 -6 -3
22 -24 26 -23 26 23 -6 26 -18 47 -37 47 -42z m44 -69 c-3 -5 0 -8 8 -7 8 2
12 -4 10 -16 -2 -10 1 -15 6 -12 5 3 15 -7 23 -22 7 -15 20 -35 28 -45 16 -19
25 -34 102 -164 40 -68 46 -85 44 -128 -2 -56 -16 -61 -50 -20 -23 27 -45 33
-45 11 0 -18 -69 -51 -82 -38 -5 5 -4 19 3 36 10 20 10 29 1 38 -7 7 -12 19
-12 27 0 8 -11 29 -24 46 -19 24 -22 35 -13 44 17 17 35 13 42 -9 8 -24 18
-25 35 -5 15 19 5 50 -26 74 -20 16 -21 20 -8 25 14 5 13 9 -3 36 -9 16 -25
33 -35 36 -10 3 -16 9 -13 14 3 5 -3 18 -15 30 -20 20 -28 56 -10 45 16 -10
12 11 -5 25 -8 6 -19 9 -25 5 -5 -3 -10 -2 -10 4 0 5 8 15 18 20 13 8 22 5 40
-15 12 -14 20 -30 16 -35z m-44 -265 c0 -9 -7 -14 -17 -12 -25 5 -28 28 -4 28
12 0 21 -6 21 -16z m194 -199 c3 -8 4 -15 2 -15 -3 0 -11 -3 -19 -6 -12 -4
-14 0 -10 15 6 25 18 27 27 6z m7008 -120 c-5 -37 -12 -51 -26 -53 -20 -4 -18
7 11 76 19 45 24 38 15 -23z m-6016 -62 c31 -33 26 -38 -17 -17 -43 21 -42 21
-34 33 10 17 24 13 51 -16z m3632 -373 c3 -7 -3 -19 -12 -26 -14 -10 -21 -8
-42 12 -13 14 -24 27 -24 29 0 11 74 -3 78 -15z m1014 -12 c-7 -7 -12 -8 -12
-2 0 14 12 26 19 19 2 -3 -1 -11 -7 -17z m86 -21 c-13 -26 -21 -15 -12 18 5
19 9 23 15 14 4 -7 3 -21 -3 -32z m-553 13 c3 -5 2 -10 -4 -10 -5 0 -13 5 -16
10 -3 6 -2 10 4 10 5 0 13 -4 16 -10z m-485 -26 c0 -2 -7 -4 -15 -4 -8 0 -15
4 -15 10 0 5 7 7 15 4 8 -4 15 -8 15 -10z m190 -10 c0 -2 -9 -4 -21 -4 -11 0
-18 4 -14 10 5 8 35 3 35 -6z m137 -10 c-3 -3 -12 -4 -19 -1 -8 3 -5 6 6 6 11
1 17 -2 13 -5z m433 -511 c107 -26 177 -70 152 -95 -29 -29 -185 -26 -371 6
-109 19 -153 58 -99 87 57 31 198 32 318 2z"/>
<path d="M996 2865 c-9 -26 -7 -32 5 -12 6 10 9 21 6 23 -2 3 -7 -2 -11 -11z"/>
<path d="M5110 3730 c0 -5 5 -10 10 -10 6 0 10 5 10 10 0 6 -4 10 -10 10 -5 0
-10 -4 -10 -10z"/>
<path d="M4808 3673 c7 -3 16 -2 19 1 4 3 -2 6 -13 5 -11 0 -14 -3 -6 -6z"/>
<path d="M4836 3651 c-14 -5 -16 -10 -7 -15 15 -9 41 -1 41 14 0 11 -7 12 -34
1z"/>
<path d="M355 2640 c-7 -12 2 -12 30 0 19 8 19 9 -2 9 -12 1 -25 -3 -28 -9z"/>
<path d="M3663 6683 c15 -2 37 -2 50 0 12 2 0 4 -28 4 -27 0 -38 -2 -22 -4z"/>
<path d="M4120 5833 c0 -13 14 -28 30 -31 11 -3 10 2 -4 17 -20 22 -26 25 -26
14z"/>
<path d="M3860 5790 c0 -5 7 -10 16 -10 8 0 12 5 9 10 -3 6 -10 10 -16 10 -5
0 -9 -4 -9 -10z"/>
<path d="M4100 5076 c0 -2 7 -6 15 -10 8 -3 15 -1 15 4 0 6 -7 10 -15 10 -8 0
-15 -2 -15 -4z"/>
<path d="M4140 5045 c0 -8 4 -15 10 -15 5 0 7 7 4 15 -4 8 -8 15 -10 15 -2 0
-4 -7 -4 -15z"/>
<path d="M4138 4973 c7 -3 16 -2 19 1 4 3 -2 6 -13 5 -11 0 -14 -3 -6 -6z"/>
<path d="M3975 4730 c-3 -5 -1 -10 4 -10 6 0 11 5 11 10 0 6 -2 10 -4 10 -3 0
-8 -4 -11 -10z"/>
<path d="M5381 4554 c0 -11 3 -14 6 -6 3 7 2 16 -1 19 -3 4 -6 -2 -5 -13z"/>
<path d="M5440 4305 c-2 -44 -4 -97 -6 -117 -3 -37 -3 -37 29 -31 18 3 33 7
34 8 2 1 -7 37 -18 81 -12 43 -25 93 -29 109 -6 22 -9 10 -10 -50z"/>
<path d="M5531 4324 c0 -11 3 -14 6 -6 3 7 2 16 -1 19 -3 4 -6 -2 -5 -13z"/>
<path d="M5353 4269 c-2 -28 2 -39 13 -39 18 0 19 47 1 64 -11 11 -13 6 -14
-25z"/>
<path d="M5567 4274 c-7 -36 9 -56 41 -52 34 4 39 26 9 37 -14 6 -30 17 -35
27 -8 14 -10 12 -15 -12z m48 -42 c-3 -3 -11 0 -18 7 -9 10 -8 11 6 5 10 -3
15 -9 12 -12z"/>
<path d="M5590 4170 c0 -5 5 -10 10 -10 6 0 10 5 10 10 0 6 -4 10 -10 10 -5 0
-10 -4 -10 -10z"/>
<path d="M5239 4133 c-15 -46 -20 -121 -8 -128 4 -3 10 9 13 27 9 57 15 138
11 138 -2 0 -9 -17 -16 -37z"/>
<path d="M5633 3948 c-2 -22 -1 -22 19 1 16 18 15 20 -1 18 -9 0 -18 -9 -18
-19z"/>
<path d="M5603 3903 c-15 -6 -17 -53 -3 -53 6 0 13 6 16 14 8 22 1 44 -13 39z"/>
<path d="M6030 3886 c0 -2 9 -6 20 -9 11 -3 20 -1 20 4 0 5 -9 9 -20 9 -11 0
-20 -2 -20 -4z"/>
<path d="M5667 3850 c-3 -11 -1 -20 4 -20 5 0 9 9 9 20 0 11 -2 20 -4 20 -2 0
-6 -9 -9 -20z"/>
<path d="M7141 2064 c0 -11 3 -14 6 -6 3 7 2 16 -1 19 -3 4 -6 -2 -5 -13z"/>
<path d="M6429 1673 c-13 -16 -12 -17 4 -4 16 13 21 21 13 21 -2 0 -10 -8 -17
-17z"/>
<path d="M4715 1420 c-3 -6 1 -13 10 -16 19 -8 30 0 20 15 -8 14 -22 14 -30 1z"/>
<path d="M5050 1330 c0 -5 9 -10 21 -10 11 0 17 5 14 10 -3 6 -13 10 -21 10
-8 0 -14 -4 -14 -10z"/>
</g>
</svg>
